<?xml version="1.0" encoding="utf-8"?>
<!-- Generator: Adobe Illustrator 22.1.0, SVG Export Plug-In . SVG Version: 6.00 Build 0)  -->
<svg version="1.1" id="Calque_1" xmlns="http://www.w3.org/2000/svg" xmlns:xlink="http://www.w3.org/1999/xlink" x="0px" y="0px"
	 viewBox="0 0 69 69" style="enable-background:new 0 0 69 69;" xml:space="preserve">
<style type="text/css">
	.st0{fill:#DF0714;}
	.st1{fill:#FFFFFF;}
	.st2{fill:#284384;}
</style>
<path class="st0" d="M34.5,0C53.6,0,69,15.4,69,34.5S53.6,69,34.5,69S0,53.6,0,34.5S15.4,0,34.5,0z"/>
<path class="st1" d="M34.5,8.7c14.3,0,25.8,11.6,25.8,25.8c0,14.3-11.6,25.8-25.8,25.8c-14.3,0-25.8-11.6-25.8-25.8
	C8.7,20.2,20.2,8.7,34.5,8.7z"/>
<path class="st2" d="M34.5,16.7c9.8,0,17.8,8,17.8,17.8s-8,17.8-17.8,17.8s-17.8-8-17.8-17.8S24.7,16.7,34.5,16.7z"/>
<g transform="translate(0,-952.36216)">
	<path class="st1" d="M30.4,994.7c0.4,0.2,0.7,0.3,1,0.4c3.2,0.8,6.1,0.6,8.6-1.5c2.5-2.1,3.6-5.4,3-8.6c-0.2-0.9-0.5-1.9-1-2.7
		c-0.2-0.4-0.7-1.1-1-1.4c-0.5-0.5-1.2-1.1-1.8-1.5c-1.5-0.9-3.4-1.4-5.2-1.2c-2.4,0.2-4.7,1.5-6.1,3.3c-1.4,1.6-2.1,3.9-2,6
		c0,0.8,0.1,1.3,0.4,2.1c0.3,1.1,0.7,1.8,1.3,2.7C28.4,993.4,29.1,994.1,30.4,994.7L30.4,994.7z M29.5,993.8
		c-0.1-0.1-0.2-0.2-0.4-0.3c-0.7-0.6-1.3-1.3-1.7-2.1c0,0,0.2-1.2,0.3-1.8c0.7,0.1,1.4,0.2,2.1,0.3c0.1,0,0.2,0,0.3,0
		c0,0,0.1,0,0.1,0c0,0,0,0,0,0c0,0,0.1,0.1,0.3,0.2c0.1,0.1,0.3,0.3,0.5,0.5c0.4,0.4,0.8,0.9,1.1,1.4l0.3,0.4
		c-0.1,0.6-0.2,1.2-0.2,1.8c-0.8-0.1-1.6-0.3-2.4-0.3l0,0l0,0C29.7,993.9,29.5,993.8,29.5,993.8L29.5,993.8z M32.5,994.3
		C32.5,994.3,32.5,994.3,32.5,994.3L32.5,994.3L32.5,994.3z M32.5,994.3c0-0.6,0.1-1.1,0.2-1.7c0-0.1,0.1-0.1,0.1-0.2
		c0.1,0,0.2-0.1,0.4-0.2s0.4-0.2,0.7-0.3c0.5-0.2,1.1-0.4,1.6-0.5l0.5-0.1l2.7,1c0,0-0.2,1.3-0.4,2c0,0.1,0,0.1-0.1,0.1
		c-1.1,0.6-1.9,0.9-3,0.9c-0.7-0.2-1.4-0.5-2.1-0.7l0,0l0,0C32.9,994.5,32.7,994.4,32.5,994.3L32.5,994.3z M27.7,989.2l-0.8-3.2
		c0,0,1.2-1.8,1.8-2.7l0.1,0c0.8,0.1,1.6,0.1,1.8,0.2c0.1,0,0.2,0,0.3,0c0.1,0,0.1,0,0.2,0c0,0,0,0,0,0c0,0,0,0,0,0c0,0,0,0,0,0
		c0,0,0,0,0,0c0,0,0,0.1,0,0.1l0,0l0,0c0.3,1.1,0.5,2.1,0.8,3.1l-0.5,0.9c-0.3,0.5-0.5,0.9-0.7,1.2c-0.2,0.3-0.3,0.6-0.4,0.6
		c0,0,0,0,0,0c0,0,0,0,0,0c0,0-0.1,0-0.1,0l0,0C29.2,989.5,27.7,989.2,27.7,989.2L27.7,989.2z M26.3,986C26.3,986,26.3,986,26.3,986
		c0-0.1,0-0.2,0.1-0.3c0-0.2,0.1-0.5,0.2-0.7c0.2-0.8,0.5-1.6,0.9-2.3c0.3-0.6,0.8-1.1,1.2-1.6c0.2-0.2,0.3-0.3,0.4-0.4
		c0.1-0.1,0.1-0.1,0.2-0.1c0,0,0,0,0,0c0,0,0,0,0,0c0,0.1-0.1,0.2-0.2,0.4c-0.2,0.5-0.3,0.6-0.4,0.9c-0.1,0.2-0.1,0.4-0.1,0.6
		c0,0.2,0,0.3,0,0.4l0,0l0,0l0,0c0,0,0,0.1,0,0.1c-0.6,0.9-1.2,1.9-1.8,2.8C26.5,986,26.4,986,26.3,986L26.3,986z M36.1,991
		c0-1.1-0.4-3.2-0.4-3.2s0,0,0,0c0.9-0.8,2.5-2.5,2.5-2.5l0.2,0c0.4,0.1,0.8,0.2,1.3,0.4c0.3,0.1,0.7,0.3,0.9,0.4l0.3,0.1
		c0.1,1.2,0.3,3.2,0.3,3.2c-0.7,1-1.6,1.9-2.4,2.5L36.1,991z M32.1,986.7c0,0-0.6-2.2-0.8-3.2l0-0.1l0.5-0.5
		c0.3-0.3,0.8-0.8,1.2-1.2c0.2-0.2,0.4-0.4,0.5-0.5c0.1-0.1,0.1-0.1,0.2-0.2l3.3,0.8c0,0,0.8,2.2,1,3.2c0,0-1.3,1.5-2,2.2
		c-0.2,0.2-0.3,0.3-0.3,0.3c-0.7-0.1-2.2-0.5-2.2-0.5S32.5,986.9,32.1,986.7z M41.5,989.5c-0.2-1.1-0.2-2.3-0.4-3.4l0.1-0.8
		c0.1-0.4,0.2-0.9,0.2-1.2s0.1-0.7,0.2-0.7c0,0,0,0,0,0c0.1,0,0.3-0.1,0.4-0.1l0.1,0.4l0,0c0.6,1.7,0.7,3.5,0.3,5
		c-0.1,0.4-0.2,0.7-0.3,1c0,0,0,0.1,0,0.1C42,989.8,41.7,989.6,41.5,989.5L41.5,989.5z M29.5,980.3c0.2-0.1,0.4-0.3,0.5-0.4
		c0.6-0.5,1-0.6,1.9-0.9c0.2-0.1,0.5-0.2,0.6-0.2l0,0.1l-0.1,0.3l-0.3,0.1c-0.4,0.2-1.5,0.6-2.2,0.9
		C29.7,980.3,29.6,980.3,29.5,980.3z M33.7,980.9l-0.2-0.3c-0.1-0.2-0.3-0.5-0.4-0.7c-0.1-0.2-0.2-0.4-0.3-0.5l0,0l0.1-0.2
		c0.1-0.2,0.2-0.3,0.2-0.4c0.1,0,0.2-0.1,0.4-0.1c1.4-0.2,2.5-0.1,4.1,0.4c0.5,0.2,1.5,0.7,1.5,0.7l0.1,1c0,0-1.2,0.7-1.8,0.9
		c-0.1,0-0.2,0-0.2,0S34.8,981.1,33.7,980.9L33.7,980.9z M41.6,983.1c-0.7-0.8-2.2-2.3-2.2-2.3l0,0l0,0c0,0,0-0.5,0-0.8
		c0,0,0,0,0.1,0.1l0,0l0,0c1.1,0.8,2,1.9,2.4,2.9l0,0c0,0,0,0.1,0,0.1C41.8,983.1,41.6,983.1,41.6,983.1L41.6,983.1z"/>
</g>
</svg>
