<?xml version="1.0" encoding="utf-8"?>
<!-- Generator: Adobe Illustrator 22.1.0, SVG Export Plug-In . SVG Version: 6.00 Build 0)  -->
<svg version="1.1" id="Calque_1" xmlns="http://www.w3.org/2000/svg" xmlns:xlink="http://www.w3.org/1999/xlink" x="0px" y="0px"
	 viewBox="0 0 68 68" style="enable-background:new 0 0 68 68;" xml:space="preserve">
<style type="text/css">
	.st0{fill:#DF0714;}
	.st1{fill:#FFFFFF;}
	.st2{fill:#284384;}
</style>
<path class="st0" d="M34,1c18.3,0,33,14.7,33,33S52.3,67,34,67S1,52.3,1,34S15.7,1,34,1z"/>
<path class="st1" d="M34,9.3c13.7,0,24.7,11.1,24.7,24.7c0,13.7-11.1,24.7-24.7,24.7C20.3,58.7,9.3,47.6,9.3,34
	C9.3,20.3,20.3,9.3,34,9.3z"/>
<path class="st2" d="M34,17c9.4,0,17,7.7,17,17s-7.7,17-17,17s-17-7.7-17-17S24.6,17,34,17z"/>
<g transform="translate(0,-952.36216)">
	<path class="st1" d="M30.1,993.9c0.4,0.2,0.7,0.3,0.9,0.4c3,0.8,5.8,0.5,8.2-1.5c2.4-2,3.5-5.2,2.9-8.2c-0.2-0.8-0.5-1.8-0.9-2.6
		c-0.2-0.4-0.7-1-1-1.3c-0.5-0.5-1.1-1.1-1.7-1.5c-1.4-0.9-3.2-1.3-4.9-1.2c-2.3,0.2-4.5,1.5-5.9,3.2c-1.3,1.6-2,3.7-1.9,5.8
		c0,0.8,0.1,1.3,0.3,2c0.3,1,0.7,1.7,1.3,2.6C28.1,992.6,28.9,993.2,30.1,993.9L30.1,993.9z M29.2,993c-0.1-0.1-0.2-0.1-0.4-0.3
		c-0.7-0.6-1.2-1.3-1.6-2c0,0,0.2-1.2,0.3-1.8c0.7,0.1,1.4,0.2,2,0.3c0.1,0,0.2,0,0.3,0c0,0,0.1,0,0.1,0c0,0,0,0,0,0
		c0,0,0.1,0.1,0.2,0.2c0.1,0.1,0.3,0.3,0.4,0.5c0.3,0.4,0.7,0.9,1.1,1.3l0.3,0.4c-0.1,0.6-0.2,1.2-0.2,1.7c-0.8-0.1-1.5-0.2-2.3-0.3
		l0,0l0,0C29.4,993.1,29.2,993,29.2,993L29.2,993z M32.1,993.5C32.1,993.5,32.1,993.5,32.1,993.5L32.1,993.5L32.1,993.5z
		 M32.1,993.5c0-0.6,0.1-1.1,0.2-1.6c0-0.1,0.1-0.1,0.1-0.2c0.1,0,0.2-0.1,0.4-0.2s0.4-0.2,0.7-0.3c0.5-0.2,1.1-0.4,1.5-0.5l0.4-0.1
		l2.6,1c0,0-0.2,1.3-0.4,1.9c0,0.1,0,0.1-0.1,0.1c-1.1,0.6-1.8,0.9-2.8,0.9c-0.7-0.2-1.4-0.4-2-0.7l0,0l0,0
		C32.5,993.7,32.3,993.6,32.1,993.5L32.1,993.5z M27.5,988.6l-0.8-3.1c0,0,1.1-1.7,1.7-2.6l0.1,0c0.8,0.1,1.5,0.1,1.7,0.2
		c0.1,0,0.2,0,0.3,0c0.1,0,0.1,0,0.2,0c0,0,0,0,0,0c0,0,0,0,0,0c0,0,0,0,0,0c0,0,0,0,0,0c0,0,0,0.1,0,0.1l0,0l0,0
		c0.2,1.1,0.5,2,0.7,3l-0.5,0.9c-0.3,0.5-0.5,0.9-0.7,1.2c-0.2,0.3-0.3,0.5-0.4,0.6c0,0,0,0,0,0c0,0,0,0,0,0c0,0-0.1,0-0.1,0l0,0
		C29,988.9,27.5,988.6,27.5,988.6L27.5,988.6z M26.1,985.5C26.1,985.5,26.1,985.5,26.1,985.5c0-0.1,0-0.2,0.1-0.3
		c0-0.2,0.1-0.4,0.1-0.6c0.2-0.8,0.5-1.5,0.9-2.2c0.3-0.5,0.8-1.1,1.1-1.5c0.2-0.2,0.3-0.3,0.4-0.4c0.1-0.1,0.1-0.1,0.2-0.1
		c0,0,0,0,0,0c0,0,0,0,0,0c0,0.1-0.1,0.2-0.2,0.3c-0.2,0.4-0.3,0.6-0.4,0.9c-0.1,0.2-0.1,0.4-0.1,0.6c0,0.2,0,0.3,0,0.4l0,0l0,0l0,0
		c0,0,0,0.1,0,0.1c-0.6,0.9-1.2,1.8-1.7,2.7C26.3,985.5,26.2,985.5,26.1,985.5L26.1,985.5z M35.5,990.3c0-1-0.4-3-0.4-3s0,0,0,0
		c0.8-0.8,2.4-2.4,2.4-2.4l0.2,0c0.4,0.1,0.8,0.2,1.3,0.4c0.3,0.1,0.6,0.3,0.8,0.3l0.3,0.1c0.1,1.1,0.3,3.1,0.3,3.1
		c-0.7,0.9-1.6,1.8-2.3,2.4L35.5,990.3z M31.7,986.2c0,0-0.6-2.1-0.8-3l0-0.1l0.4-0.5c0.3-0.3,0.7-0.7,1.1-1.1
		c0.2-0.2,0.4-0.3,0.5-0.5c0.1-0.1,0.1-0.1,0.2-0.2l3.1,0.7c0,0,0.8,2.1,0.9,3c0,0-1.2,1.4-2,2.1c-0.2,0.2-0.3,0.3-0.3,0.3
		c-0.7-0.1-2.1-0.5-2.1-0.5S32.1,986.4,31.7,986.2z M40.7,988.9c-0.2-1-0.2-2.2-0.4-3.2l0.1-0.7c0.1-0.4,0.1-0.8,0.2-1.2
		c0.1-0.3,0.1-0.6,0.1-0.7c0,0,0,0,0,0c0.1,0,0.3,0,0.4-0.1l0.1,0.4l0,0c0.6,1.6,0.6,3.3,0.3,4.8c-0.1,0.3-0.2,0.6-0.3,1
		c0,0,0,0.1,0,0.1C41.2,989.1,40.9,989,40.7,988.9L40.7,988.9z M29.3,980.1c0.2-0.1,0.3-0.3,0.5-0.4c0.6-0.4,0.9-0.6,1.8-0.9
		c0.2-0.1,0.5-0.2,0.6-0.2l0,0.1L32,979l-0.3,0.1c-0.4,0.1-1.4,0.6-2.1,0.9C29.4,980.1,29.3,980.1,29.3,980.1z M33.2,980.6l-0.2-0.3
		c-0.1-0.2-0.3-0.5-0.4-0.7c-0.1-0.2-0.2-0.4-0.3-0.5l0,0l0.1-0.2c0.1-0.2,0.2-0.3,0.2-0.4c0.1,0,0.1-0.1,0.4-0.1
		c1.3-0.2,2.4-0.1,3.9,0.4c0.5,0.2,1.4,0.7,1.4,0.7l0.1,1c0,0-1.2,0.6-1.8,0.8c-0.1,0-0.2,0-0.2,0S34.3,980.8,33.2,980.6L33.2,980.6
		z M40.8,982.8c-0.7-0.8-2.1-2.2-2.1-2.2l0,0l0,0c0,0,0-0.5,0-0.8c0,0,0,0,0.1,0.1l0,0l0,0c1.1,0.8,1.9,1.8,2.3,2.7l0,0
		c0,0,0,0.1,0,0.1C41,982.7,40.8,982.8,40.8,982.8L40.8,982.8z"/>
</g>
</svg>
