<?xml version="1.0" encoding="UTF-8" standalone="no"?>
<!-- Created with Inkscape (http://www.inkscape.org/) -->
<svg xmlns:dc="http://purl.org/dc/elements/1.1/" xmlns:cc="http://creativecommons.org/ns#" xmlns:rdf="http://www.w3.org/1999/02/22-rdf-syntax-ns#" xmlns:svg="http://www.w3.org/2000/svg" xmlns="http://www.w3.org/2000/svg" xmlns:sodipodi="http://sodipodi.sourceforge.net/DTD/sodipodi-0.dtd" xmlns:inkscape="http://www.inkscape.org/namespaces/inkscape" width="84.666664mm" height="108.07684mm" viewBox="0 0 299.99999 382.94942" id="svg10788" version="1.1" inkscape:version="0.91 r13725" sodipodi:docname="2019 FIFA Women World Cup logo.svg">
  <defs id="defs10790">
    <radialGradient fx="0" fy="0" cx="0" cy="0" r="1" gradientUnits="userSpaceOnUse" gradientTransform="matrix(25.681,0,0,-25.681,86.383,807.515)" spreadMethod="pad" id="radialGradient6266">
      <stop style="stop-opacity:1;stop-color:#fff31a" offset="0" id="stop6268"/>
      <stop style="stop-opacity:1;stop-color:#fff31a" offset="0.18594" id="stop6270"/>
      <stop style="stop-opacity:1;stop-color:#f47121" offset="0.727809" id="stop6272"/>
      <stop style="stop-opacity:1;stop-color:#e11829" offset="0.954015" id="stop6274"/>
      <stop style="stop-opacity:1;stop-color:#e11829" offset="1" id="stop6276"/>
    </radialGradient>
    <linearGradient x1="0" y1="0" x2="1" y2="0" gradientUnits="userSpaceOnUse" gradientTransform="matrix(-11.609,1.6469,1.6469,11.609,79.479,808.426)" spreadMethod="pad" id="linearGradient6236">
      <stop style="stop-opacity:1;stop-color:#949abe" offset="0" id="stop6238"/>
      <stop style="stop-opacity:1;stop-color:#bac3e6" offset="0.14493145" id="stop6240"/>
      <stop style="stop-opacity:1;stop-color:#bac3e6" offset="0.215658" id="stop6242"/>
      <stop style="stop-opacity:1;stop-color:#ffffff" offset="0.42267091" id="stop6244"/>
      <stop style="stop-opacity:1;stop-color:#ffffff" offset="0.472147" id="stop6246"/>
      <stop style="stop-opacity:1;stop-color:#ffffff" offset="0.5522211" id="stop6248"/>
      <stop style="stop-opacity:1;stop-color:#727b9c" offset="0.774033" id="stop6250"/>
      <stop style="stop-opacity:1;stop-color:#063d5c" offset="1" id="stop6252"/>
    </linearGradient>
    <linearGradient x1="0" y1="0" x2="1" y2="0" gradientUnits="userSpaceOnUse" gradientTransform="matrix(-1.1361,-8.4027,-8.4027,1.1361,74.932,804.124)" spreadMethod="pad" id="linearGradient6214">
      <stop style="stop-opacity:1;stop-color:#05a0e4" offset="0" id="stop6216"/>
      <stop style="stop-opacity:1;stop-color:#05a0e4" offset="0.168277" id="stop6218"/>
      <stop style="stop-opacity:1;stop-color:#2e3191" offset="0.507274" id="stop6220"/>
      <stop style="stop-opacity:1;stop-color:#2e3191" offset="1" id="stop6222"/>
    </linearGradient>
    <linearGradient x1="0" y1="0" x2="1" y2="0" gradientUnits="userSpaceOnUse" gradientTransform="matrix(-16.058,1.6877,1.6877,16.058,83.739,806.503)" spreadMethod="pad" id="linearGradient6182">
      <stop style="stop-opacity:1;stop-color:#2c3796" offset="0" id="stop6184"/>
      <stop style="stop-opacity:1;stop-color:#2c3796" offset="0.204924" id="stop6186"/>
      <stop style="stop-opacity:1;stop-color:#127bca" offset="0.35956063" id="stop6188"/>
      <stop style="stop-opacity:1;stop-color:#127bca" offset="0.364509" id="stop6190"/>
      <stop style="stop-opacity:1;stop-color:#2c3796" offset="0.50748426" id="stop6192"/>
      <stop style="stop-opacity:1;stop-color:#2c3796" offset="0.543657" id="stop6194"/>
      <stop style="stop-opacity:1;stop-color:#13153e" offset="0.79374451" id="stop6196"/>
      <stop style="stop-opacity:1;stop-color:#13153e" offset="0.858017" id="stop6198"/>
      <stop style="stop-opacity:1;stop-color:#13153e" offset="1" id="stop6200"/>
    </linearGradient>
    <linearGradient x1="0" y1="0" x2="1" y2="0" gradientUnits="userSpaceOnUse" gradientTransform="matrix(-19.191,-10.312,-10.312,19.191,92.179,796.187)" spreadMethod="pad" id="linearGradient6156">
      <stop style="stop-opacity:1;stop-color:#1672c3" offset="0" id="stop6158"/>
      <stop style="stop-opacity:1;stop-color:#1672c3" offset="0.045983" id="stop6160"/>
      <stop style="stop-opacity:1;stop-color:#69cff6" offset="0.247509" id="stop6162"/>
      <stop style="stop-opacity:1;stop-color:#69cff6" offset="0.379343" id="stop6164"/>
      <stop style="stop-opacity:1;stop-color:#1672c3" offset="0.883184" id="stop6166"/>
      <stop style="stop-opacity:1;stop-color:#1672c3" offset="1" id="stop6168"/>
    </linearGradient>
    <linearGradient x1="0" y1="0" x2="1" y2="0" gradientUnits="userSpaceOnUse" gradientTransform="matrix(10.061,-2.5646,-2.5646,-10.061,78.971,782.979)" spreadMethod="pad" id="linearGradient6128">
      <stop style="stop-opacity:1;stop-color:#9da4ca" offset="0" id="stop6130"/>
      <stop style="stop-opacity:1;stop-color:#bac3e6" offset="0.20844691" id="stop6132"/>
      <stop style="stop-opacity:1;stop-color:#bac3e6" offset="0.310169" id="stop6134"/>
      <stop style="stop-opacity:1;stop-color:#ffffff" offset="0.51819346" id="stop6136"/>
      <stop style="stop-opacity:1;stop-color:#ffffff" offset="0.7439" id="stop6138"/>
      <stop style="stop-opacity:1;stop-color:#ffffff" offset="0.77376325" id="stop6140"/>
      <stop style="stop-opacity:1;stop-color:#a2b1df" offset="1" id="stop6142"/>
    </linearGradient>
    <linearGradient x1="0" y1="0" x2="1" y2="0" gradientUnits="userSpaceOnUse" gradientTransform="matrix(-26.254,6.6432,6.6432,26.254,94.128,778.256)" spreadMethod="pad" id="linearGradient6096">
      <stop style="stop-opacity:1;stop-color:#2c3796" offset="0" id="stop6098"/>
      <stop style="stop-opacity:1;stop-color:#2c3796" offset="0.204982" id="stop6100"/>
      <stop style="stop-opacity:1;stop-color:#127bca" offset="0.28106868" id="stop6102"/>
      <stop style="stop-opacity:1;stop-color:#127bca" offset="0.311199" id="stop6104"/>
      <stop style="stop-opacity:1;stop-color:#127bca" offset="0.32960888" id="stop6106"/>
      <stop style="stop-opacity:1;stop-color:#2c3796" offset="0.431886" id="stop6108"/>
      <stop style="stop-opacity:1;stop-color:#13153e" offset="0.66235842" id="stop6110"/>
      <stop style="stop-opacity:1;stop-color:#13153e" offset="0.728504" id="stop6112"/>
      <stop style="stop-opacity:1;stop-color:#13153e" offset="1" id="stop6114"/>
    </linearGradient>
    <linearGradient x1="0" y1="0" x2="1" y2="0" gradientUnits="userSpaceOnUse" gradientTransform="matrix(-5.4978,-5.6619,-5.6619,5.4978,84.858,770.035)" spreadMethod="pad" id="linearGradient6070">
      <stop style="stop-opacity:1;stop-color:#1672c3" offset="0" id="stop6072"/>
      <stop style="stop-opacity:1;stop-color:#1672c3" offset="0.045983" id="stop6074"/>
      <stop style="stop-opacity:1;stop-color:#69cff6" offset="0.247509" id="stop6076"/>
      <stop style="stop-opacity:1;stop-color:#69cff6" offset="0.379343" id="stop6078"/>
      <stop style="stop-opacity:1;stop-color:#1672c3" offset="0.883184" id="stop6080"/>
      <stop style="stop-opacity:1;stop-color:#1672c3" offset="1" id="stop6082"/>
    </linearGradient>
    <linearGradient x1="0" y1="0" x2="1" y2="0" gradientUnits="userSpaceOnUse" gradientTransform="matrix(12.676,3.6522,3.6522,-12.676,76.757,751.245)" spreadMethod="pad" id="linearGradient6042">
      <stop style="stop-opacity:1;stop-color:#9da4ca" offset="0" id="stop6044"/>
      <stop style="stop-opacity:1;stop-color:#bac3e6" offset="0.20844691" id="stop6046"/>
      <stop style="stop-opacity:1;stop-color:#bac3e6" offset="0.310169" id="stop6048"/>
      <stop style="stop-opacity:1;stop-color:#ffffff" offset="0.6418949" id="stop6050"/>
      <stop style="stop-opacity:1;stop-color:#ffffff" offset="0.705918" id="stop6052"/>
      <stop style="stop-opacity:1;stop-color:#ffffff" offset="0.82358608" id="stop6054"/>
      <stop style="stop-opacity:1;stop-color:#a2b1df" offset="1" id="stop6056"/>
    </linearGradient>
    <linearGradient x1="0" y1="0" x2="1" y2="0" gradientUnits="userSpaceOnUse" gradientTransform="matrix(-28.594,-5.4028,-5.4028,28.594,96.209,750.92)" spreadMethod="pad" id="linearGradient6012">
      <stop style="stop-opacity:1;stop-color:#2c3796" offset="0" id="stop6014"/>
      <stop style="stop-opacity:1;stop-color:#2c3796" offset="0.192677" id="stop6016"/>
      <stop style="stop-opacity:1;stop-color:#127bca" offset="0.28439307" id="stop6018"/>
      <stop style="stop-opacity:1;stop-color:#127bca" offset="0.310257" id="stop6020"/>
      <stop style="stop-opacity:1;stop-color:#2c3796" offset="0.40523741" id="stop6022"/>
      <stop style="stop-opacity:1;stop-color:#2c3796" offset="0.421764" id="stop6024"/>
      <stop style="stop-opacity:1;stop-color:#13153e" offset="0.63672162" id="stop6026"/>
      <stop style="stop-opacity:1;stop-color:#13153e" offset="1" id="stop6028"/>
    </linearGradient>
    <radialGradient fx="0" fy="0" cx="0" cy="0" r="1" gradientUnits="userSpaceOnUse" gradientTransform="matrix(2.736,0,0,-2.736,83.31,814.24)" spreadMethod="pad" id="radialGradient5986">
      <stop style="stop-opacity:1;stop-color:#fffba8" offset="0" id="stop5988"/>
      <stop style="stop-opacity:1;stop-color:#fffba8" offset="0.002582" id="stop5990"/>
      <stop style="stop-opacity:1;stop-color:#fff31a" offset="0.243947" id="stop5992"/>
      <stop style="stop-opacity:1;stop-color:#f47121" offset="0.572287" id="stop5994"/>
      <stop style="stop-opacity:1;stop-color:#e11829" offset="0.954015" id="stop5996"/>
      <stop style="stop-opacity:1;stop-color:#e11829" offset="1" id="stop5998"/>
    </radialGradient>
    <radialGradient fx="0" fy="0" cx="0" cy="0" r="1" gradientUnits="userSpaceOnUse" gradientTransform="matrix(4.3181,0,0,-4.3181,83.786,796.972)" spreadMethod="pad" id="radialGradient5964">
      <stop style="stop-opacity:1;stop-color:#fff991" offset="0" id="stop5966"/>
      <stop style="stop-opacity:1;stop-color:#fff991" offset="0.221467" id="stop5968"/>
      <stop style="stop-opacity:1;stop-color:#fee502" offset="0.471662" id="stop5970"/>
      <stop style="stop-opacity:1;stop-color:#ef3620" offset="1" id="stop5972"/>
    </radialGradient>
    <radialGradient fx="0" fy="0" cx="0" cy="0" r="1" gradientUnits="userSpaceOnUse" gradientTransform="matrix(2.6536,0,0,-2.6536,75.802,798.468)" spreadMethod="pad" id="radialGradient5942">
      <stop style="stop-opacity:1;stop-color:#fff991" offset="0" id="stop5944"/>
      <stop style="stop-opacity:1;stop-color:#fff991" offset="0.221467" id="stop5946"/>
      <stop style="stop-opacity:1;stop-color:#fee502" offset="0.471662" id="stop5948"/>
      <stop style="stop-opacity:1;stop-color:#ef3620" offset="1" id="stop5950"/>
    </radialGradient>
    <radialGradient fx="0" fy="0" cx="0" cy="0" r="1" gradientUnits="userSpaceOnUse" gradientTransform="matrix(1.3415,0,0,-1.3415,79.833,797.922)" spreadMethod="pad" id="radialGradient5920">
      <stop style="stop-opacity:1;stop-color:#fff991" offset="0" id="stop5922"/>
      <stop style="stop-opacity:1;stop-color:#fff991" offset="0.221467" id="stop5924"/>
      <stop style="stop-opacity:1;stop-color:#fee502" offset="0.471662" id="stop5926"/>
      <stop style="stop-opacity:1;stop-color:#ef3620" offset="1" id="stop5928"/>
    </radialGradient>
    <radialGradient fx="0" fy="0" cx="0" cy="0" r="1" gradientUnits="userSpaceOnUse" gradientTransform="matrix(5.8854,0,0,-5.8854,81.951,807.513)" spreadMethod="pad" id="radialGradient5898">
      <stop style="stop-opacity:1;stop-color:#fff991" offset="0" id="stop5900"/>
      <stop style="stop-opacity:1;stop-color:#fff991" offset="0.221467" id="stop5902"/>
      <stop style="stop-opacity:1;stop-color:#fee502" offset="0.471662" id="stop5904"/>
      <stop style="stop-opacity:1;stop-color:#ef3620" offset="1" id="stop5906"/>
    </radialGradient>
    <radialGradient fx="0" fy="0" cx="0" cy="0" r="1" gradientUnits="userSpaceOnUse" gradientTransform="matrix(3.0401,0,0,-3.0401,77.415,802.888)" spreadMethod="pad" id="radialGradient5876">
      <stop style="stop-opacity:1;stop-color:#fff991" offset="0" id="stop5878"/>
      <stop style="stop-opacity:1;stop-color:#fff991" offset="0.221467" id="stop5880"/>
      <stop style="stop-opacity:1;stop-color:#fee502" offset="0.471662" id="stop5882"/>
      <stop style="stop-opacity:1;stop-color:#ef3620" offset="1" id="stop5884"/>
    </radialGradient>
    <radialGradient fx="0" fy="0" cx="0" cy="0" r="1" gradientUnits="userSpaceOnUse" gradientTransform="matrix(17.378,0,0,-17.378,86.309,812.192)" spreadMethod="pad" id="radialGradient5850">
      <stop style="stop-opacity:1;stop-color:#fffba8" offset="0" id="stop5852"/>
      <stop style="stop-opacity:1;stop-color:#fffba8" offset="0.002582" id="stop5854"/>
      <stop style="stop-opacity:1;stop-color:#fee103" offset="0.218542" id="stop5856"/>
      <stop style="stop-opacity:1;stop-color:#f47121" offset="0.572287" id="stop5858"/>
      <stop style="stop-opacity:1;stop-color:#e11829" offset="0.954015" id="stop5860"/>
      <stop style="stop-opacity:1;stop-color:#e11829" offset="1" id="stop5862"/>
    </radialGradient>
    <radialGradient fx="0" fy="0" cx="0" cy="0" r="1" gradientUnits="userSpaceOnUse" gradientTransform="matrix(17.377,0,0,-17.377,86.309,812.192)" spreadMethod="pad" id="radialGradient5824">
      <stop style="stop-opacity:1;stop-color:#fffba8" offset="0" id="stop5826"/>
      <stop style="stop-opacity:1;stop-color:#fffba8" offset="0.002582" id="stop5828"/>
      <stop style="stop-opacity:1;stop-color:#fff31a" offset="0.243947" id="stop5830"/>
      <stop style="stop-opacity:1;stop-color:#f47121" offset="0.572287" id="stop5832"/>
      <stop style="stop-opacity:1;stop-color:#e11829" offset="0.954015" id="stop5834"/>
      <stop style="stop-opacity:1;stop-color:#e11829" offset="1" id="stop5836"/>
    </radialGradient>
    <radialGradient fx="0" fy="0" cx="0" cy="0" r="1" gradientUnits="userSpaceOnUse" gradientTransform="matrix(17.718,0,0,-17.718,86.37,813.202)" spreadMethod="pad" id="radialGradient5800">
      <stop style="stop-opacity:1;stop-color:#fff991" offset="0" id="stop5802"/>
      <stop style="stop-opacity:1;stop-color:#fff991" offset="0.167801" id="stop5804"/>
      <stop style="stop-opacity:1;stop-color:#fee502" offset="0.471662" id="stop5806"/>
      <stop style="stop-opacity:1;stop-color:#ef3620" offset="0.941126" id="stop5808"/>
      <stop style="stop-opacity:1;stop-color:#ef3620" offset="1" id="stop5810"/>
    </radialGradient>
    <radialGradient fx="0" fy="0" cx="0" cy="0" r="1" gradientUnits="userSpaceOnUse" gradientTransform="matrix(16.221,0,0,-16.221,85.743,811.494)" spreadMethod="pad" id="radialGradient5778">
      <stop style="stop-opacity:1;stop-color:#fff991" offset="0" id="stop5780"/>
      <stop style="stop-opacity:1;stop-color:#fff991" offset="0.221467" id="stop5782"/>
      <stop style="stop-opacity:1;stop-color:#fee502" offset="0.471662" id="stop5784"/>
      <stop style="stop-opacity:1;stop-color:#ef3620" offset="1" id="stop5786"/>
    </radialGradient>
    <radialGradient fx="0" fy="0" cx="0" cy="0" r="1" gradientUnits="userSpaceOnUse" gradientTransform="matrix(12.009,0,0,-12.009,82.043,804.429)" spreadMethod="pad" id="radialGradient5754">
      <stop style="stop-opacity:1;stop-color:#e41b22" offset="0" id="stop5756"/>
      <stop style="stop-opacity:1;stop-color:#e41b22" offset="0.150975" id="stop5758"/>
      <stop style="stop-opacity:1;stop-color:#a81218" offset="0.542551" id="stop5760"/>
      <stop style="stop-opacity:1;stop-color:#380304" offset="0.923767" id="stop5762"/>
      <stop style="stop-opacity:1;stop-color:#380304" offset="1" id="stop5764"/>
    </radialGradient>
    <radialGradient fx="0" fy="0" cx="0" cy="0" r="1" gradientUnits="userSpaceOnUse" gradientTransform="matrix(9.3989,0,0,-9.3989,83.883,808.531)" spreadMethod="pad" id="radialGradient5728">
      <stop style="stop-opacity:1;stop-color:#ed1c24" offset="0" id="stop5730"/>
      <stop style="stop-opacity:1;stop-color:#ed1c24" offset="0.070564" id="stop5732"/>
      <stop style="stop-opacity:1;stop-color:#e41b22" offset="0.338665" id="stop5734"/>
      <stop style="stop-opacity:1;stop-color:#a81218" offset="0.638824" id="stop5736"/>
      <stop style="stop-opacity:1;stop-color:#380304" offset="0.923767" id="stop5738"/>
      <stop style="stop-opacity:1;stop-color:#380304" offset="1" id="stop5740"/>
    </radialGradient>
    <radialGradient fx="0" fy="0" cx="0" cy="0" r="1" gradientUnits="userSpaceOnUse" gradientTransform="matrix(12.627,0,0,-12.627,84.212,803.051)" spreadMethod="pad" id="radialGradient5704">
      <stop style="stop-opacity:1;stop-color:#ed1c24" offset="0" id="stop5706"/>
      <stop style="stop-opacity:1;stop-color:#ed1c24" offset="0.240585" id="stop5708"/>
      <stop style="stop-opacity:1;stop-color:#d41920" offset="0.657926" id="stop5710"/>
      <stop style="stop-opacity:1;stop-color:#690a0d" offset="0.973399" id="stop5712"/>
      <stop style="stop-opacity:1;stop-color:#690a0d" offset="1" id="stop5714"/>
    </radialGradient>
    <radialGradient fx="0" fy="0" cx="0" cy="0" r="1" gradientUnits="userSpaceOnUse" gradientTransform="matrix(18.6,0,0,-18.6,73.58,802.198)" spreadMethod="pad" id="radialGradient5682">
      <stop style="stop-opacity:1;stop-color:#ed1c24" offset="0" id="stop5684"/>
      <stop style="stop-opacity:1;stop-color:#ed1c24" offset="0.243584" id="stop5686"/>
      <stop style="stop-opacity:1;stop-color:#a81218" offset="0.575845" id="stop5688"/>
      <stop style="stop-opacity:1;stop-color:#380304" offset="1" id="stop5690"/>
    </radialGradient>
    <radialGradient fx="0" fy="0" cx="0" cy="0" r="1" gradientUnits="userSpaceOnUse" gradientTransform="matrix(17.406,0,0,-17.406,86.385,812.196)" spreadMethod="pad" id="radialGradient5656">
      <stop style="stop-opacity:1;stop-color:#fffba8" offset="0" id="stop5658"/>
      <stop style="stop-opacity:1;stop-color:#fffba8" offset="0.002582" id="stop5660"/>
      <stop style="stop-opacity:1;stop-color:#fff31a" offset="0.243947" id="stop5662"/>
      <stop style="stop-opacity:1;stop-color:#f47121" offset="0.572287" id="stop5664"/>
      <stop style="stop-opacity:1;stop-color:#e11829" offset="0.954015" id="stop5666"/>
      <stop style="stop-opacity:1;stop-color:#e11829" offset="1" id="stop5668"/>
    </radialGradient>
    <radialGradient fx="0" fy="0" cx="0" cy="0" r="1" gradientUnits="userSpaceOnUse" gradientTransform="matrix(5.0567,0,0,-5.0567,78.944,768.082)" spreadMethod="pad" id="radialGradient5630">
      <stop style="stop-opacity:1;stop-color:#d91f26" offset="0" id="stop5632"/>
      <stop style="stop-opacity:1;stop-color:#d91f26" offset="0.070564" id="stop5634"/>
      <stop style="stop-opacity:1;stop-color:#d91f26" offset="0.3390126" id="stop5636"/>
      <stop style="stop-opacity:1;stop-color:#a81218" offset="0.642002" id="stop5638"/>
      <stop style="stop-opacity:1;stop-color:#a81218" offset="0.73243797" id="stop5640"/>
      <stop style="stop-opacity:1;stop-color:#380304" offset="1" id="stop5642"/>
    </radialGradient>
    <radialGradient fx="0" fy="0" cx="0" cy="0" r="1" gradientUnits="userSpaceOnUse" gradientTransform="matrix(5.7715,0,0,-5.7715,84.643,766.239)" spreadMethod="pad" id="radialGradient5608">
      <stop style="stop-opacity:1;stop-color:#ed1c24" offset="0" id="stop5610"/>
      <stop style="stop-opacity:1;stop-color:#ed1c24" offset="0.013523" id="stop5612"/>
      <stop style="stop-opacity:1;stop-color:#e11a22" offset="0.305685" id="stop5614"/>
      <stop style="stop-opacity:1;stop-color:#670a0c" offset="1" id="stop5616"/>
    </radialGradient>
    <clipPath clipPathUnits="userSpaceOnUse" id="clipPath16">
      <path d="m 1194.22,-2.511 -8.18,0 c -0.62,0.163 -1.27,0.25 -1.95,0.25 -0.67,0 -1.32,-0.087 -1.94,-0.25 l -40.43,0 c 5.55,4.662 11.1,9.2601 16.69,13.799 1.37,-1.282 3.2,-2.0729 5.22,-2.0729 4.21,0 7.63,3.4149 7.63,7.6279 0,1.42 -0.4,2.744 -1.07,3.882 7.71,6.095 15.46,12.066 23.28,17.905 0,0 0.03,0.022 0.07,0.057 l 0,111.203 c -1.29,-0.876 -3.06,-2.045 -4.14,-2.749 -7.39,-4.847 -14.74,-9.816 -22.02,-14.886 -1.11,0.627 -2.39,0.989 -3.75,0.989 -4.21,0 -7.63,-3.415 -7.63,-7.627 0,-0.449 0.05,-0.886 0.12,-1.313 3.42,2.452 6.86,4.88 10.3,7.285 -49.26,-34.395 -95.96,-73.683 -141.17,-115.381 0.01,0.21 0.03,0.42 0.03,0.635 0,4.213 -3.42,7.628 -7.63,7.628 -4.21,0 -7.63,-3.415 -7.63,-7.628 0,-4.213 3.42,-7.6279 7.63,-7.6279 l 0.05,0.0019 c 1.94,1.801 3.87,3.596 5.81,5.387 -6.12,-5.661 -12.23,-11.373 -18.3,-17.115 l -13.81,0 c -0.621,0.163 -1.272,0.25 -1.944,0.25 -0.672,0 -1.323,-0.087 -1.944,-0.25 l -44.772,0 c -0.621,0.163 -1.272,0.25 -1.944,0.25 -0.672,0 -1.324,-0.087 -1.944,-0.25 l -44.772,0 c -0.621,0.163 -1.273,0.25 -1.944,0.25 -0.672,0 -1.323,-0.087 -1.944,-0.25 l -44.795,0 c -0.415,0.107 -0.844,0.1811 -1.284,0.217 -0.068,-0.072 -0.137,-0.145 -0.205,-0.217 l -10e-4,0 c 0.562,0.5961 1.124,1.1921 1.686,1.78807 C 888.811,45.131 932.718,91.716 978.067,136.067 l 186.143,0 0,36.33 c 3.94,0.294 7.05,3.588 7.05,7.606 0,4.02 -3.11,7.314 -7.05,7.608 l 0,39.173 c 3.94,0.295 7.05,3.588 7.05,7.607 0,4.019 -3.11,7.312 -7.05,7.607 l 0,39.173 c 3.94,0.294 7.05,3.587 7.05,7.607 0,2.247 -0.98,4.261 -2.52,5.656 -1.51,-0.992 -3.02,-1.992 -4.53,-2.999 l 0,0.003 c 9.61,6.404 19.18,12.511 28.73,18.334 l 0.6,0.355 0,104.82 c -0.85,-0.451 -2.07,-1.1 -2.5,-1.324 -7.08,-3.734 -14.16,-7.6 -21.24,-11.601 -1.28,1.764 -3.29,2.963 -5.59,3.136 l 0,39.174 c 3.94,0.294 7.05,3.587 7.05,7.606 0,4.02 -3.11,7.313 -7.05,7.607 l 0,39.174 c 3.94,0.294 7.05,3.587 7.05,7.607 0,4.018 -3.11,7.312 -7.05,7.606 l 0,39.174 c 3.94,0.294 7.05,3.587 7.05,7.606 0,0.172 -0.02,0.339 -0.03,0.507 7.01,3.652 14.07,7.2 21.2,10.64 l 1.11,0.548 0,99.929 c -1.08,-0.463 -2.86,-1.235 -3.42,-1.47 -8.67,-3.664 -17.3,-7.492 -25.91,-11.488 l 0,2.502 c 3.94,0.294 7.05,3.587 7.05,7.606 0,4.019 -3.11,7.312 -7.05,7.607 l 0,17.395 -21.47,0 c 4.63,21.107 5.6,43.382 2.33,66.012 0.04,0.08 0.15,0.283 0.31,0.607 0.05,0.082 0.09,0.164 0.13,0.245 0,0.004 0,0.006 0.01,0.009 0.16,0.326 0.04,0.727 -0.28,0.907 -0.11,0.059 -0.23,0.088 -0.34,0.088 -0.24,0 -0.47,-0.127 -0.6,-0.352 l -0.02,-0.031 c -0.31,-0.555 -0.46,-0.832 -0.46,-0.832 -0.85,-1.506 -1.88,-2.917 -3.08,-4.129 -1.38,1.327 -3.24,2.144 -5.3,2.144 -3.69,0 -6.76,-2.609 -7.47,-6.079 -1.85,0.301 -3.66,0.863 -5.4,1.593 -1.28,0.544 -2.52,1.179 -3.72,1.886 l -0.02,0.009 c -2.32,1.345 -4.61,2.737 -6.96,4.037 -1.72,0.975 -3.44,1.949 -5.19,2.88 -1.74,0.954 -3.49,1.878 -5.26,2.778 -3.52,1.831 -7.11,3.542 -10.73,5.189 -2.88,1.282 -5.8,2.505 -8.76,3.639 33.12,18.692 66.61,34.671 100.9,48.189 2.64,1.041 8.09,3.112 10.71,4.071 l 0,14.542 -63.62,0 64.3,0 0,-844.401 M 968.991,24.471 c -4.213,0 -7.628,-3.415 -7.628,-7.628 0,-4.213 3.415,-7.6279 7.628,-7.6279 4.213,0 7.628,3.4149 7.628,7.6279 0,4.213 -3.415,7.628 -7.628,7.628 m -48.659,0 c -4.213,0 -7.628,-3.415 -7.628,-7.628 0,-4.213 3.415,-7.6279 7.628,-7.6279 4.213,0 7.628,3.4149 7.628,7.6279 0,4.213 -3.415,7.628 -7.628,7.628 m -48.66,0 c -1,0 -1.953,-0.198 -2.829,-0.548 -1.467,-1.554 -2.935,-3.106 -4.4,-4.659 -0.255,-0.762 -0.399,-1.574 -0.399,-2.421 0,-4.213 3.415,-7.6279 7.628,-7.6279 4.213,0 7.628,3.4149 7.628,7.6279 0,4.213 -3.415,7.628 -7.628,7.628 m 166.448,27.654 c -4.22,0 -7.63,-3.415 -7.63,-7.628 0,-4.213 3.41,-7.628 7.63,-7.628 4.21,0 7.62,3.415 7.62,7.628 0,4.213 -3.41,7.628 -7.62,7.628 m -48.664,0 c -4.213,0 -7.628,-3.415 -7.628,-7.628 0,-4.213 3.415,-7.628 7.628,-7.628 4.213,0 7.628,3.415 7.628,7.628 0,4.213 -3.415,7.628 -7.628,7.628 M 936.023,38.546 c 1.307,-1.049 2.967,-1.677 4.773,-1.677 1.806,0 3.466,0.628 4.772,1.677 l 6.562,0 c 3.779,0 7.319,3.039 7.891,6.775 l 1.216,7.95 c 0.28,1.835 -0.186,3.57 -1.315,4.885 -1.13,1.315 -2.774,2.04 -4.631,2.04 l -30.269,0 c -1.857,0 -3.501,-0.725 -4.63,-2.04 -1.129,-1.315 -1.596,-3.05 -1.316,-4.885 l 1.217,-7.95 c 0.571,-3.736 4.111,-6.775 7.891,-6.775 l 7.839,0 m -40.972,13 c -3.274,-3.433 -6.542,-6.868 -9.806,-10.304 1.223,-2.582 3.845,-4.373 6.891,-4.373 4.213,0 7.628,3.415 7.628,7.628 0,3.18 -1.948,5.904 -4.713,7.049 m 171.259,27.312 c -4.21,0 -7.63,-3.415 -7.63,-7.628 0,-4.213 3.42,-7.628 7.63,-7.628 4.21,0 7.63,3.415 7.63,7.628 0,4.213 -3.42,7.628 -7.63,7.628 m -48.66,0 c -4.21,0 -7.63,-3.415 -7.63,-7.628 0,-4.213 3.42,-7.628 7.63,-7.628 4.21,0 7.63,3.415 7.63,7.628 0,4.213 -3.42,7.628 -7.63,7.628 m -48.659,0 c -4.213,0 -7.628,-3.415 -7.628,-7.628 0,-4.213 3.415,-7.628 7.628,-7.628 4.213,0 7.628,3.415 7.628,7.628 0,4.213 -3.415,7.628 -7.628,7.628 m -47.764,-0.057 c -2.814,-2.905 -5.622,-5.815 -8.426,-8.727 0.558,-3.664 3.712,-6.472 7.531,-6.472 4.213,0 7.628,3.415 7.628,7.628 0,3.909 -2.942,7.127 -6.733,7.571 m 165.553,27.711 c -4.22,0 -7.63,-3.415 -7.63,-7.628 0,-4.213 3.41,-7.628 7.63,-7.628 4.21,0 7.62,3.415 7.62,7.628 0,4.213 -3.41,7.628 -7.62,7.628 m -48.66,0 c -4.22,0 -7.63,-3.415 -7.63,-7.628 0,-4.213 3.41,-7.628 7.63,-7.628 4.21,0 7.62,3.415 7.62,7.628 0,4.213 -3.41,7.628 -7.62,7.628 m -48.664,0 c -4.213,0 -7.628,-3.415 -7.628,-7.628 0,-4.213 3.415,-7.628 7.628,-7.628 4.213,0 7.628,3.415 7.628,7.628 0,4.213 -3.415,7.628 -7.628,7.628 m -43.293,-2.21 c -3.572,-3.615 -7.137,-7.239 -10.694,-10.872 1.375,-1.344 3.253,-2.174 5.327,-2.174 4.213,0 7.628,3.415 7.628,7.628 0,2.119 -0.865,4.035 -2.261,5.418 m 168.807,28.942 c -4.21,0 -7.63,-3.415 -7.63,-7.627 0,-4.213 3.42,-7.628 7.63,-7.628 4.21,0 7.63,3.415 7.63,7.628 0,4.212 -3.42,7.627 -7.63,7.627 m -48.66,0 c -4.21,0 -7.63,-3.415 -7.63,-7.627 0,-4.213 3.42,-7.628 7.63,-7.628 4.21,0 7.63,3.415 7.63,7.628 0,4.212 -3.42,7.627 -7.63,7.627 m -48.66,0 c -4.21,0 -7.63,-3.415 -7.63,-7.627 0,-4.213 3.42,-7.628 7.63,-7.628 4.21,0 7.63,3.415 7.63,7.628 0,4.212 -3.42,7.627 -7.63,7.627 m -44.049,-1.559 c -3.584,-3.524 -7.161,-7.062 -10.727,-10.61 1.391,-1.869 3.609,-3.086 6.117,-3.086 4.213,0 7.628,3.415 7.628,7.628 0,2.478 -1.187,4.674 -3.018,6.068 m 210.489,29.214 c -4.21,0 -7.62,-3.415 -7.62,-7.628 0,-4.213 3.41,-7.628 7.62,-7.628 4.22,0 7.63,3.415 7.63,7.628 0,4.213 -3.41,7.628 -7.63,7.628 m 0,54.387 c -4.21,0 -7.62,-3.415 -7.62,-7.628 0,-4.212 3.41,-7.628 7.62,-7.628 4.22,0 7.63,3.416 7.63,7.628 0,4.213 -3.41,7.628 -7.63,7.628 m 0,54.387 c -4.21,0 -7.62,-3.415 -7.62,-7.628 0,-4.213 3.41,-7.628 7.62,-7.628 4.22,0 7.63,3.415 7.63,7.628 0,4.213 -3.41,7.628 -7.63,7.628 m 0,163.161 c -4.21,0 -7.62,-3.415 -7.62,-7.628 0,-4.213 3.41,-7.628 7.62,-7.628 4.22,0 7.63,3.415 7.63,7.628 0,4.213 -3.41,7.628 -7.63,7.628 m 0,54.386 c -4.21,0 -7.62,-3.415 -7.62,-7.627 0,-4.213 3.41,-7.628 7.62,-7.628 4.22,0 7.63,3.415 7.63,7.628 0,4.212 -3.41,7.627 -7.63,7.627 m 0,54.388 c -4.21,0 -7.62,-3.415 -7.62,-7.628 0,-4.213 3.41,-7.628 7.62,-7.628 4.22,0 7.63,3.415 7.63,7.628 0,4.213 -3.41,7.628 -7.63,7.628 m 0,163.161 c -4.21,0 -7.62,-3.415 -7.62,-7.628 0,-4.213 3.41,-7.628 7.62,-7.628 4.22,0 7.63,3.415 7.63,7.628 0,4.213 -3.41,7.628 -7.63,7.628 m -20.46,26.732 c -4.21,0 -7.63,-3.415 -7.63,-7.628 0,-4.213 3.42,-7.628 7.63,-7.628 4.21,0 7.63,3.415 7.63,7.628 0,4.213 -3.42,7.628 -7.63,7.628 m 20.46,27.655 c -4.21,0 -7.62,-3.416 -7.62,-7.628 0,-4.213 3.41,-7.629 7.62,-7.629 4.22,0 7.63,3.416 7.63,7.629 0,4.212 -3.41,7.628 -7.63,7.628 m -20.46,26.732 c -4.21,0 -7.63,-3.415 -7.63,-7.628 0,-4.213 3.42,-7.628 7.63,-7.628 4.21,0 7.63,3.415 7.63,7.628 0,4.213 -3.42,7.628 -7.63,7.628 m -48.66,0 c -4.21,0 -7.63,-3.415 -7.63,-7.628 0,-4.213 3.42,-7.628 7.63,-7.628 4.21,0 7.63,3.415 7.63,7.628 0,4.213 -3.42,7.628 -7.63,7.628 m 69.12,27.655 c -4.21,0 -7.62,-3.416 -7.62,-7.628 0,-4.213 3.41,-7.629 7.62,-7.629 4.22,0 7.63,3.416 7.63,7.629 0,4.212 -3.41,7.628 -7.63,7.628 m -41.05,-7.226 c -4.27,-1.959 -8.53,-3.958 -12.78,-5.999 1.37,-1.257 3.18,-2.032 5.18,-2.032 4.21,0 7.62,3.416 7.62,7.629 0,0.135 -0.01,0.268 -0.02,0.402 M 718.145,-2.511 l -18.704,0 c -0.621,0.163 -1.272,0.25 -1.944,0.25 -0.672,0 -1.323,-0.087 -1.944,-0.25 l -44.772,0 c -0.621,0.163 -1.272,0.25 -1.944,0.25 -0.672,0 -1.323,-0.087 -1.944,-0.25 l -44.772,0 c -0.62,0.163 -1.272,0.25 -1.943,0.25 -0.672,0 -1.324,-0.087 -1.944,-0.25 l -31.756,0 c 4.117,3.899 8.212,7.821 12.31,11.787 0.304,-0.037 0.611,-0.0609 0.925,-0.0609 4.213,0 7.628,3.4149 7.628,7.6279 0,0.248 -0.014,0.493 -0.037,0.735 0.937,0.92 1.878,1.846 2.814,2.769 l 31.478,0 c -0.544,-1.049 -0.851,-2.241 -0.851,-3.504 0,-4.213 3.415,-7.6279 7.628,-7.6279 4.213,0 7.628,3.4149 7.628,7.6279 0,1.263 -0.307,2.455 -0.851,3.504 l 35.105,0 c -0.543,-1.049 -0.851,-2.241 -0.851,-3.504 0,-4.213 3.416,-7.6279 7.628,-7.6279 4.213,0 7.628,3.4149 7.628,7.6279 0,1.263 -0.307,2.455 -0.85,3.504 l 35.105,0 c -0.544,-1.049 -0.851,-2.241 -0.851,-3.504 0,-4.213 3.415,-7.6279 7.628,-7.6279 4.213,0 7.628,3.4149 7.628,7.6279 0,1.263 -0.307,2.455 -0.85,3.504 l 7.476,0 C 732.663,12.674 725.406,5.0601 718.145,-2.511 m -290.804,0 -19.859,0 c -0.621,0.163 -1.272,0.25 -1.944,0.25 -0.672,0 -1.323,-0.087 -1.944,-0.25 l -44.772,0 c -0.621,0.163 -1.272,0.25 -1.944,0.25 -0.672,0 -1.323,-0.087 -1.944,-0.25 l -44.772,0 c -0.62,0.163 -1.272,0.25 -1.943,0.25 -0.672,0 -1.324,-0.087 -1.944,-0.25 l -44.772,0 c -0.621,0.163 -1.273,0.25 -1.944,0.25 -0.672,0 -1.324,-0.087 -1.944,-0.25 l -44.773,0 c -0.62,0.163 -1.272,0.25 -1.944,0.25 -0.672,0 -1.323,-0.087 -1.944,-0.25 l -9.739,0 c 12.054,3.708 24.053,7.9651 36.024,12.78 1.132,-0.6659 2.446,-1.0539 3.855,-1.0539 3.561,0 6.543,2.4429 7.384,5.7419 4.012,1.733 8.024,3.531 12.031,5.39 l 22.467,0 c -0.543,-1.049 -0.85,-2.241 -0.85,-3.504 0,-4.213 3.415,-7.6279 7.628,-7.6279 4.213,0 7.628,3.4149 7.628,7.6279 0,1.263 -0.307,2.455 -0.851,3.504 l 35.106,0 c -0.544,-1.049 -0.851,-2.241 -0.851,-3.504 0,-4.213 3.415,-7.6279 7.628,-7.6279 4.213,0 7.628,3.4149 7.628,7.6279 0,1.263 -0.307,2.455 -0.85,3.504 l 35.104,0 c -0.543,-1.049 -0.851,-2.241 -0.851,-3.504 0,-4.213 3.416,-7.6279 7.629,-7.6279 4.212,0 7.627,3.4149 7.627,7.6279 0,1.263 -0.307,2.455 -0.85,3.504 l 23.923,0 0,73.701 -4.337,0 c 1.081,1.316 1.729,3.001 1.729,4.836 0,4.213 -3.415,7.628 -7.628,7.628 -4.213,0 -7.628,-3.415 -7.628,-7.628 0,-1.835 0.648,-3.52 1.729,-4.836 l -22.505,0 c 16.964,13.175 33.648,27.225 50.123,42.019 l 148.366,0 C 562.015,121.723 548.405,107.688 534.758,94.048 l -26.001,0 c 1.08,1.316 1.728,3.001 1.728,4.836 0,4.213 -3.415,7.628 -7.628,7.628 -4.213,0 -7.628,-3.415 -7.628,-7.628 0,-1.835 0.649,-3.52 1.729,-4.836 l -36.861,0 c 1.081,1.316 1.729,3.001 1.729,4.836 0,4.213 -3.416,7.628 -7.629,7.628 -4.212,0 -7.627,-3.415 -7.627,-7.628 0,-1.835 0.649,-3.52 1.729,-4.836 l -26.684,0 0,-73.701 5.341,0 c -0.543,-1.049 -0.85,-2.241 -0.85,-3.504 0,-4.213 3.415,-7.6279 7.627,-7.6279 4.213,0 7.628,3.4149 7.628,7.6279 0,1.263 -0.307,2.455 -0.85,3.504 l 14.844,0 C 446.073,12.476 436.734,4.8451 427.341,-2.511 m 103.712,135.755 c -4.213,0 -7.628,-3.415 -7.628,-7.627 0,-4.213 3.415,-7.628 7.628,-7.628 4.213,0 7.629,3.415 7.629,7.628 0,4.212 -3.416,7.627 -7.629,7.627 m -48.66,0 c -4.212,0 -7.627,-3.415 -7.627,-7.627 0,-4.213 3.415,-7.628 7.627,-7.628 4.213,0 7.628,3.415 7.628,7.628 0,4.212 -3.415,7.627 -7.628,7.627 m -48.66,0 c -4.212,0 -7.627,-3.415 -7.627,-7.627 0,-4.213 3.415,-7.628 7.627,-7.628 4.213,0 7.628,3.415 7.628,7.628 0,4.212 -3.415,7.627 -7.628,7.627 M 0.54114,-2.511 0,-2.511 0,841.89 l 742.325,0 -68.861,0 C 630.507,796.879 590.286,750.493 552.17,704.736 c -0.216,0.018 -0.432,0.033 -0.652,0.033 -4.213,0 -7.628,-3.415 -7.628,-7.628 0,-0.705 0.103,-1.386 0.282,-2.033 -0.169,-0.205 -0.344,-0.416 -0.513,-0.62 l -33.648,0 c 0.307,0.826 0.474,1.72 0.474,2.653 0,4.213 -3.415,7.628 -7.628,7.628 -4.213,0 -7.628,-3.415 -7.628,-7.628 0,-0.933 0.168,-1.827 0.474,-2.653 l -34.351,0 c 0.307,0.826 0.474,1.72 0.474,2.653 0,4.213 -3.416,7.628 -7.629,7.628 -4.212,0 -7.627,-3.415 -7.627,-7.628 0,-0.933 0.168,-1.827 0.474,-2.653 l -28.302,0 c 5.553,7.285 11.114,14.602 16.698,21.955 3.389,0.776 5.921,3.804 5.921,7.43 0,0.118 -0.011,0.232 -0.017,0.349 1.329,1.751 2.65,3.492 3.981,5.246 10.666,14.057 21.486,28.315 32.477,42.711 1.278,-0.967 2.865,-1.547 4.591,-1.547 4.213,0 7.628,3.415 7.628,7.628 0,2.452 -1.162,4.628 -2.959,6.024 3.875,5.056 7.771,10.125 11.69,15.208 1.186,-0.759 2.593,-1.206 4.105,-1.206 4.213,0 7.628,3.416 7.628,7.629 0,2.209 -0.944,4.193 -2.446,5.586 5.128,6.611 10.292,13.237 15.5,19.877 0.606,-3.608 3.735,-6.359 7.514,-6.359 4.213,0 7.629,3.415 7.629,7.628 0,4.213 -3.416,7.628 -7.629,7.628 -0.181,0 -0.359,-0.015 -0.536,-0.027 -0.788,-0.998 -1.574,-1.996 -2.36,-2.994 1.215,1.544 2.435,3.091 3.655,4.636 l -115.591,0 c -14.835,-19.345 -29.35,-38.472 -43.601,-57.253 -23.758,-31.311 -46.678,-61.516 -69.08,-90.149 2.517,3.216 5.04,6.454 7.569,9.71 -0.891,0.365 -1.867,0.571 -2.89,0.571 -4.213,0 -7.629,-3.415 -7.629,-7.628 0,-0.934 0.17,-1.828 0.479,-2.653 l -34.356,0 c 0.306,0.826 0.473,1.72 0.473,2.653 0,4.213 -3.415,7.628 -7.627,7.628 -4.213,0 -7.628,-3.415 -7.628,-7.628 0,-0.933 0.167,-1.827 0.474,-2.653 l -34.353,0 c 0.307,0.826 0.474,1.72 0.474,2.653 0,4.213 -3.415,7.628 -7.628,7.628 -4.212,0 -7.627,-3.415 -7.627,-7.628 0,-0.933 0.167,-1.827 0.474,-2.653 l -15.13,0 c 37.728,43.041 74.955,92.94 113.972,147.402 l -112.945,0 c -0.486,-0.651 -0.973,-1.304 -1.458,-1.953 -3.074,-0.948 -5.313,-3.787 -5.37,-7.159 -5.331,-7.076 -10.633,-14.025 -15.91,-20.837 -1.291,1 -2.906,1.602 -4.665,1.602 -4.213,0 -7.628,-3.416 -7.628,-7.628 0,-2.426 1.135,-4.583 2.9,-5.979 1.73,2.189 3.463,4.394 5.198,6.614 -5.767,-7.38 -11.506,-14.593 -17.225,-21.627 -1.099,0.613 -2.362,0.965 -3.71,0.965 -4.212,0 -7.628,-3.415 -7.628,-7.628 0,-1.875 0.68,-3.589 1.802,-4.917 1.404,1.682 2.809,3.376 4.215,5.08 -14.284,-17.324 -28.451,-33.502 -42.611,-48.354 -1.251,0.898 -2.78,1.432 -4.437,1.432 -4.213,0 -7.629,-3.415 -7.629,-7.628 0,-1.725 0.58,-3.311 1.546,-4.589 2.559,2.563 5.117,5.169 7.676,7.82 C 83.353,715.337 72,704.432 60.596,694.488 l -0.008,0 c 3.123,2.722 6.242,5.514 9.359,8.379 -1.343,1.18 -3.099,1.902 -5.028,1.902 -4.213,0 -7.628,-3.415 -7.628,-7.628 0,-0.934 0.169,-1.827 0.477,-2.653 l -27.42,0 0,-23.933 C 20.603,663.664 10.973,657.674 1.4159,652.562 l -0.87476,-0.469 0,-99.195 c 0.65806,0.225 1.63706,0.559 1.92856,0.662 9.3333,3.294 18.6253,7.126 27.8783,11.498 l 0,-111.33 c -9.701,-2.994 -19.43,-5.312 -29.2221,-6.959 0,0 -0.0737,-0.012 -0.1884,-0.028 0.1681,0.026 0.3361,0.053 0.5038,0.082 1.2275,1.353 1.9816,3.144 1.9816,5.115 0,2.418 -1.1264,4.571 -2.88176,5.969 l 0,-103.434 c 1.48196,0.152 3.52456,0.4 4.81026,0.568 8.3826,1.099 16.7146,2.537 24.9966,4.315 l 0,-102.027 c -4.314,-0.2 -8.646,-0.3 -12.994,-0.3 -2.079,0 -4.163,0.023 -6.251,0.069 2.032,-0.044 4.06,-0.066 6.084,-0.066 1.619,0 3.236,0.014 4.85,0.042 1.151,1.336 1.851,3.07 1.851,4.971 0,4.213 -3.415,7.628 -7.628,7.628 -4.213,0 -7.628,-3.415 -7.628,-7.628 0,-1.882 0.6845,-3.602 1.814,-4.932 -3.1857,0.077 -6.3799,0.207 -9.5865,0.389 l -0.31836,0.018 0,-91.456 c 4.34856,-0.169 9.19226,-0.258 14.28986,-0.258 5,0 10.247,0.085 15.517,0.263 l 0,-30.002 248.732,0 c -5.467,-3.562 -10.96,-6.999 -16.475,-10.306 -21.356,-12.804 -42.558,-23.356 -63.779,-31.713 l -30.688,0 c 1.081,1.316 1.729,3.001 1.729,4.836 0,4.213 -3.416,7.628 -7.628,7.628 -4.213,0 -7.628,-3.415 -7.628,-7.628 0,-3.71 2.649,-6.801 6.159,-7.486 l 0,-9.981 c -1.943,-0.525 -3.894,-1.034 -5.839,-1.523 l 0,14.154 -35.452,0 c 1.08,1.316 1.728,3.001 1.728,4.836 0,4.213 -3.415,7.628 -7.628,7.628 -4.213,0 -7.628,-3.415 -7.628,-7.628 0,-1.835 0.648,-3.52 1.729,-4.836 l -36.862,0 c 1.081,1.316 1.729,3.001 1.729,4.836 0,4.213 -3.415,7.628 -7.628,7.628 -4.213,0 -7.628,-3.415 -7.628,-7.628 0,-1.835 0.648,-3.52 1.728,-4.836 l -28.671,0 0,-21.816 c -9.82,1.15 -19.729,2.698 -29.74345,4.646 l -0.06341,0.012 0,-79.401 m 0,79.405 c 0.14935,-0.03 0.2987,-0.06 0.44812,-0.089 -0.14392,0.134 -0.29364,0.262 -0.44812,0.384 l 0,-0.295 M 16.26,106.512 c -4.213,0 -7.628,-3.415 -7.628,-7.628 0,-4.213 3.415,-7.628 7.628,-7.628 4.213,0 7.628,3.415 7.628,7.628 0,4.213 -3.415,7.628 -7.628,7.628 m 194.638,0 c -4.212,0 -7.627,-3.415 -7.627,-7.628 0,-0.997 0.197,-1.947 0.544,-2.82 4.661,1.912 9.323,3.928 13.986,6.053 -1.218,2.594 -3.847,4.395 -6.903,4.395 m 28.196,26.732 c -4.212,0 -7.628,-3.415 -7.628,-7.627 0,-4.213 3.416,-7.628 7.628,-7.628 4.213,0 7.629,3.415 7.629,7.628 0,4.212 -3.416,7.627 -7.629,7.627 m -48.659,0 c -4.213,0 -7.628,-3.415 -7.628,-7.627 0,-4.213 3.415,-7.628 7.628,-7.628 4.212,0 7.627,3.415 7.627,7.628 0,4.212 -3.415,7.627 -7.627,7.627 m -48.661,0 c -4.212,0 -7.628,-3.415 -7.628,-7.627 0,-4.213 3.416,-7.628 7.628,-7.628 4.213,0 7.628,3.415 7.628,7.628 0,4.212 -3.415,7.627 -7.628,7.627 m -48.659,0 c -4.213,0 -7.629,-3.415 -7.629,-7.627 0,-4.213 3.416,-7.628 7.629,-7.628 4.213,0 7.628,3.415 7.628,7.628 0,4.212 -3.415,7.627 -7.628,7.627 m -48.66,0 c -4.213,0 -7.628,-3.415 -7.628,-7.627 0,-4.213 3.415,-7.628 7.628,-7.628 4.213,0 7.628,3.415 7.628,7.628 0,4.212 -3.415,7.627 -7.628,7.627 m -43.91386,-1.659 0,-11.936 c 1.75536,1.397 2.88176,3.55 2.88176,5.968 0,2.418 -1.1264,4.571 -2.88176,5.968 M 16.26,160.899 c -4.213,0 -7.628,-3.415 -7.628,-7.628 0,-4.213 3.415,-7.628 7.628,-7.628 4.213,0 7.628,3.415 7.628,7.628 0,4.213 -3.415,7.628 -7.628,7.628 m -15.71886,133.847 0,-11.937 c 1.75536,1.398 2.88176,3.551 2.88176,5.969 0,2.418 -1.1264,4.571 -2.88176,5.968 M 16.26,324.06 c -4.213,0 -7.628,-3.415 -7.628,-7.628 0,-4.213 3.415,-7.628 7.628,-7.628 4.213,0 7.628,3.415 7.628,7.628 0,4.213 -3.415,7.628 -7.628,7.628 m -15.71886,25.073 0,-11.937 c 1.75536,1.397 2.88176,3.55 2.88176,5.968 0,2.419 -1.1264,4.571 -2.88176,5.969 M 16.26,487.22 c -4.213,0 -7.628,-3.415 -7.628,-7.627 0,-4.213 3.415,-7.628 7.628,-7.628 4.213,0 7.628,3.415 7.628,7.628 0,4.212 -3.415,7.627 -7.628,7.627 m -15.71886,25.074 0,-11.937 c 1.75536,1.397 2.88176,3.55 2.88176,5.969 0,2.417 -1.1264,4.57 -2.88176,5.968 M 16.26,541.608 c -4.213,0 -7.628,-3.415 -7.628,-7.628 0,-4.213 3.415,-7.628 7.628,-7.628 4.213,0 7.628,3.415 7.628,7.628 0,4.213 -3.415,7.628 -7.628,7.628 m -15.71886,133.846 0,-11.936 c 1.75536,1.397 2.88176,3.55 2.88176,5.968 0,2.418 -1.1264,4.571 -2.88176,5.968 M 16.26,704.769 c -4.213,0 -7.628,-3.415 -7.628,-7.628 0,-4.213 3.415,-7.628 7.628,-7.628 4.213,0 7.628,3.415 7.628,7.628 0,4.213 -3.415,7.628 -7.628,7.628 m 514.793,26.732 c -4.213,0 -7.628,-3.415 -7.628,-7.628 0,-4.213 3.415,-7.628 7.628,-7.628 4.213,0 7.629,3.415 7.629,7.628 0,4.213 -3.416,7.628 -7.629,7.628 m -48.66,0 c -4.212,0 -7.627,-3.415 -7.627,-7.628 0,-4.213 3.415,-7.628 7.627,-7.628 4.213,0 7.628,3.415 7.628,7.628 0,4.213 -3.415,7.628 -7.628,7.628 m -194.639,0 c -4.213,0 -7.628,-3.415 -7.628,-7.628 0,-4.213 3.415,-7.628 7.628,-7.628 4.213,0 7.628,3.415 7.628,7.628 0,4.213 -3.415,7.628 -7.628,7.628 m -48.66,0 c -4.212,0 -7.628,-3.415 -7.628,-7.628 0,-4.213 3.416,-7.628 7.628,-7.628 4.213,0 7.629,3.415 7.629,7.628 0,4.213 -3.416,7.628 -7.629,7.628 m -194.639,0 c -4.213,0 -7.628,-3.415 -7.628,-7.628 0,-4.213 3.415,-7.628 7.628,-7.628 4.213,0 7.628,3.415 7.628,7.628 0,4.213 -3.415,7.628 -7.628,7.628 m -43.91386,-1.66 0,-11.936 c 1.75536,1.397 2.88176,3.55 2.88176,5.968 0,2.418 -1.1264,4.571 -2.88176,5.968 M 551.518,759.156 c -4.213,0 -7.628,-3.416 -7.628,-7.628 0,-4.213 3.415,-7.629 7.628,-7.629 4.213,0 7.628,3.416 7.628,7.629 0,4.212 -3.415,7.628 -7.628,7.628 m -48.661,0 c -4.213,0 -7.628,-3.416 -7.628,-7.628 0,-4.213 3.415,-7.629 7.628,-7.629 4.213,0 7.628,3.416 7.628,7.629 0,4.212 -3.415,7.628 -7.628,7.628 m -194.638,0 c -4.213,0 -7.629,-3.416 -7.629,-7.628 0,-4.213 3.416,-7.629 7.629,-7.629 4.212,0 7.628,3.416 7.628,7.629 0,4.212 -3.416,7.628 -7.628,7.628 m -48.66,0 c -4.213,0 -7.628,-3.416 -7.628,-7.628 0,-4.213 3.415,-7.629 7.628,-7.629 4.212,0 7.627,3.416 7.627,7.629 0,4.212 -3.415,7.628 -7.627,7.628 m -194.64,0 c -4.213,0 -7.628,-3.416 -7.628,-7.628 0,-4.213 3.415,-7.629 7.628,-7.629 4.213,0 7.628,3.416 7.628,7.629 0,4.212 -3.415,7.628 -7.628,7.628 m -48.659,0 c -4.213,0 -7.628,-3.416 -7.628,-7.628 0,-4.213 3.415,-7.629 7.628,-7.629 4.213,0 7.628,3.416 7.628,7.629 0,4.212 -3.415,7.628 -7.628,7.628 m 445.548,-7.977 c -1.751,-2.305 -3.498,-4.604 -5.242,-6.9 2.947,0.963 5.096,3.669 5.242,6.9 m -348.229,7.977 c -4.213,0 -7.628,-3.416 -7.628,-7.628 0,-3.254 2.04,-6.024 4.908,-7.12 3.157,3.487 6.315,7.041 9.477,10.653 -1.275,2.432 -3.82,4.095 -6.757,4.095 m 466.134,26.732 c -4.213,0 -7.628,-3.415 -7.628,-7.628 0,-4.213 3.415,-7.628 7.628,-7.628 4.213,0 7.628,3.415 7.628,7.628 0,4.213 -3.415,7.628 -7.628,7.628 m -48.66,0 c -4.213,0 -7.628,-3.415 -7.628,-7.628 0,-4.213 3.415,-7.628 7.628,-7.628 4.213,0 7.629,3.415 7.629,7.628 0,4.213 -3.416,7.628 -7.629,7.628 m -194.639,0 c -4.213,0 -7.628,-3.415 -7.628,-7.628 0,-4.213 3.415,-7.628 7.628,-7.628 4.213,0 7.628,3.415 7.628,7.628 0,4.213 -3.415,7.628 -7.628,7.628 m -48.66,0 c -4.213,0 -7.628,-3.415 -7.628,-7.628 0,-4.213 3.415,-7.628 7.628,-7.628 4.213,0 7.628,3.415 7.628,7.628 0,4.213 -3.415,7.628 -7.628,7.628 m -194.639,0 c -4.213,0 -7.629,-3.415 -7.629,-7.628 0,-4.213 3.416,-7.628 7.629,-7.628 4.213,0 7.628,3.415 7.628,7.628 0,4.213 -3.415,7.628 -7.628,7.628 m -48.66,0 c -4.213,0 -7.628,-3.415 -7.628,-7.628 0,-4.213 3.415,-7.628 7.628,-7.628 4.213,0 7.628,3.415 7.628,7.628 0,4.213 -3.415,7.628 -7.628,7.628 m -43.91386,-1.66 0,-11.936 c 1.75536,1.397 2.88176,3.55 2.88176,5.968 0,2.418 -1.1264,4.571 -2.88176,5.968 M 600.178,813.543 c -4.213,0 -7.629,-3.416 -7.629,-7.628 0,-4.213 3.416,-7.629 7.629,-7.629 4.212,0 7.628,3.416 7.628,7.629 0,4.212 -3.416,7.628 -7.628,7.628 m -48.66,0 c -4.213,0 -7.628,-3.416 -7.628,-7.628 0,-4.213 3.415,-7.629 7.628,-7.629 4.213,0 7.628,3.416 7.628,7.629 0,4.212 -3.415,7.628 -7.628,7.628 m -194.64,0 c -4.213,0 -7.628,-3.416 -7.628,-7.628 0,-4.213 3.415,-7.629 7.628,-7.629 4.213,0 7.628,3.416 7.628,7.629 0,4.212 -3.415,7.628 -7.628,7.628 m -48.659,0 c -4.213,0 -7.629,-3.416 -7.629,-7.628 0,-4.213 3.416,-7.629 7.629,-7.629 4.212,0 7.628,3.416 7.628,7.629 0,4.212 -3.416,7.628 -7.628,7.628 m -194.64,0 c -4.213,0 -7.628,-3.416 -7.628,-7.628 0,-4.213 3.415,-7.629 7.628,-7.629 4.213,0 7.628,3.416 7.628,7.629 0,4.212 -3.415,7.628 -7.628,7.628 m -48.66,0 c -4.213,0 -7.628,-3.416 -7.628,-7.628 0,-4.213 3.415,-7.629 7.628,-7.629 4.213,0 7.628,3.416 7.628,7.629 0,4.212 -3.415,7.628 -7.628,7.628 m -48.659,0 c -4.213,0 -7.628,-3.416 -7.628,-7.628 0,-4.213 3.415,-7.629 7.628,-7.629 4.213,0 7.628,3.416 7.628,7.629 0,4.212 -3.415,7.628 -7.628,7.628 m 612.113,26.732 c -4.213,0 -7.628,-3.415 -7.628,-7.628 0,-4.213 3.415,-7.628 7.628,-7.628 4.213,0 7.628,3.415 7.628,7.628 0,4.213 -3.415,7.628 -7.628,7.628 m -48.66,0 c -4.213,0 -7.628,-3.415 -7.628,-7.628 0,-4.213 3.415,-7.628 7.628,-7.628 4.213,0 7.628,3.415 7.628,7.628 0,4.213 -3.415,7.628 -7.628,7.628 m -194.639,0 c -4.213,0 -7.629,-3.415 -7.629,-7.628 0,-4.213 3.416,-7.628 7.629,-7.628 4.212,0 7.627,3.415 7.627,7.628 0,4.213 -3.415,7.628 -7.627,7.628 m -48.66,0 c -4.213,0 -7.628,-3.415 -7.628,-7.628 0,-4.213 3.415,-7.628 7.628,-7.628 4.213,0 7.628,3.415 7.628,7.628 0,4.213 -3.415,7.628 -7.628,7.628 m -194.64,0 c -4.212,0 -7.628,-3.415 -7.628,-7.628 0,-4.213 3.416,-7.628 7.628,-7.628 4.213,0 7.628,3.415 7.628,7.628 0,4.213 -3.415,7.628 -7.628,7.628 m -48.659,0 c -4.213,0 -7.629,-3.415 -7.629,-7.628 0,-4.213 3.416,-7.628 7.629,-7.628 4.213,0 7.628,3.415 7.628,7.628 0,4.213 -3.415,7.628 -7.628,7.628 m -48.66,0 c -4.213,0 -7.628,-3.415 -7.628,-7.628 0,-4.213 3.415,-7.628 7.628,-7.628 4.213,0 7.628,3.415 7.628,7.628 0,4.213 -3.415,7.628 -7.628,7.628 m -43.91386,-1.66 0,-11.936 c 1.75536,1.397 2.88176,3.55 2.88176,5.968 0,2.418 -1.1264,4.571 -2.88176,5.968 M 682.459,22.204 c -1.383,1.4 -3.304,2.267 -5.427,2.267 -0.138,0 -0.276,-0.003 -0.413,-0.011 l 0,39.153 c 0.137,-0.007 0.275,-0.011 0.413,-0.011 2.123,0 4.044,0.867 5.427,2.267 l 0,-43.665 m -391.266,1.45 c -1.034,0.523 -2.202,0.817 -3.439,0.817 -0.84,0 -1.648,-0.135 -2.404,-0.386 l 0,9.675 c 1.946,1.042 3.897,2.102 5.843,3.174 l 0,-13.28 m 391.266,52.937 c -1.383,1.399 -3.304,2.267 -5.427,2.267 -0.138,0 -0.276,-0.004 -0.413,-0.011 l 0,15.201 -15.225,0 c 12.863,13.814 25.716,27.837 38.606,42.019 l 149.64,0 c -14.319,-14.85 -28.503,-29.764 -42.599,-44.666 l 0,2.647 -6.325,0 c 1.08,1.316 1.728,3.001 1.728,4.836 0,4.213 -3.415,7.628 -7.628,7.628 -4.213,0 -7.628,-3.415 -7.628,-7.628 0,-1.835 0.649,-3.52 1.729,-4.836 l -36.861,0 c 1.081,1.316 1.729,3.001 1.729,4.836 0,4.213 -3.416,7.628 -7.629,7.628 -4.213,0 -7.628,-3.415 -7.628,-7.628 0,-1.835 0.648,-3.52 1.729,-4.836 l -36.861,0 c 1.081,1.316 1.729,3.001 1.729,4.836 0,4.213 -3.415,7.628 -7.628,7.628 -4.213,0 -7.628,-3.415 -7.628,-7.628 0,-1.835 0.648,-3.52 1.729,-4.836 l -9.139,0 0,-17.457 m 140.553,56.653 c -4.213,0 -7.628,-3.415 -7.628,-7.627 0,-4.213 3.415,-7.628 7.628,-7.628 4.212,0 7.628,3.415 7.628,7.628 0,4.212 -3.416,7.627 -7.628,7.627 m -48.66,0 c -4.212,0 -7.628,-3.415 -7.628,-7.627 0,-4.213 3.416,-7.628 7.628,-7.628 4.213,0 7.629,3.415 7.629,7.628 0,4.212 -3.416,7.627 -7.629,7.627 m -48.66,0 c -4.213,0 -7.628,-3.415 -7.628,-7.627 0,-4.213 3.415,-7.628 7.628,-7.628 4.213,0 7.628,3.415 7.628,7.628 0,4.212 -3.415,7.627 -7.628,7.627 m 440.878,-1.551 c 0.05,0.029 0.09,0.058 0.13,0.087 -0.04,-0.028 -0.09,-0.058 -0.13,-0.087 m -385.104,562.795 -28.155,0 c 0.307,0.826 0.474,1.72 0.474,2.653 0,4.213 -3.416,7.628 -7.629,7.628 -4.213,0 -7.628,-3.415 -7.628,-7.628 0,-0.933 0.168,-1.827 0.474,-2.653 l -34.351,0 c 0.306,0.826 0.474,1.72 0.474,2.653 0,4.213 -3.415,7.628 -7.628,7.628 -4.213,0 -7.628,-3.415 -7.628,-7.628 0,-0.933 0.168,-1.827 0.474,-2.653 l -27.291,0 c 22.747,26.347 46.111,52.463 70.27,78.013 0.554,-12.214 2.222,-24.532 5.084,-36.865 -0.072,-0.119 -0.226,-0.376 -0.464,-0.772 -0.237,-0.399 -0.138,-0.924 0.245,-1.203 0.161,-0.117 0.348,-0.174 0.534,-0.174 0.281,0 0.557,0.13 0.735,0.374 l 0.011,0.014 c 0.063,0.088 0.127,0.175 0.19,0.262 0.254,0.349 0.381,0.524 0.381,0.524 2.534,3.438 5.291,6.766 8.385,9.581 1.812,0.563 3.334,1.783 4.289,3.382 0.408,0.274 0.823,0.537 1.243,0.791 3.185,1.913 6.717,2.991 10.265,2.991 0.128,0 0.256,-10e-4 0.385,-0.004 2.692,-0.059 5.371,-0.724 7.947,-1.773 6.116,-2.544 11.638,-6.841 17.175,-11.19 1.819,-1.438 3.66,-2.88 5.561,-4.292 0.998,-0.741 2.013,-1.474 3.05,-2.194 3.017,-2.071 6.233,-4.068 10.007,-5.402 1.933,-0.672 4.038,-1.142 6.241,-1.188 0.124,-0.004 0.248,-0.005 0.372,-0.005 0.191,0 0.382,0.003 0.572,0.011 -0.096,-0.484 -0.146,-0.984 -0.146,-1.496 0,-4.213 3.415,-7.628 7.628,-7.628 4.212,0 7.628,3.415 7.628,7.628 0,2.751 -1.457,5.163 -3.641,6.505 1.213,1.085 2.296,2.263 3.284,3.472 2.97,3.676 5.196,7.661 7.139,11.705 l 0.009,0.018 c 0.131,0.277 0.263,0.553 0.396,0.829 1.395,-1.537 3.41,-2.503 5.65,-2.503 4.212,0 7.627,3.416 7.627,7.629 0,3.849 -2.851,7.033 -6.557,7.553 1.613,2.711 3.327,5.342 5.176,7.841 3.466,4.658 7.469,8.938 12.206,11.557 0.726,0.407 1.468,0.767 2.225,1.08 -0.072,-0.422 -0.11,-0.856 -0.11,-1.299 0,-4.213 3.415,-7.628 7.628,-7.628 4.213,0 7.628,3.415 7.628,7.628 0,0.593 -0.068,1.17 -0.196,1.724 4.867,-1.329 9.68,-3.611 14.477,-5.975 L 893.599,774 c 4.418,-2.168 8.813,-4.52 13.379,-6.701 -3.822,-2.975 -7.612,-5.961 -11.392,-8.975 -1.037,0.528 -2.207,0.832 -3.45,0.832 -4.212,0 -7.628,-3.416 -7.628,-7.628 0,-0.668 0.095,-1.313 0.256,-1.93 -9.517,-7.759 -18.904,-15.639 -28.166,-23.624 -3.448,-0.273 -6.893,-0.925 -10.2,-2.073 -0.671,-0.234 -1.338,-0.487 -1.997,-0.762 -2.621,-1.099 -5.113,-2.517 -7.381,-4.181 -2.286,-1.649 -4.361,-3.517 -6.337,-5.404 -3.514,-3.343 -6.762,-6.798 -10.628,-9.191 -3.833,-2.432 -8.301,-3.583 -12.9,-3.617 -0.098,-10e-4 -0.195,-10e-4 -0.293,-10e-4 -1.847,0 -3.702,0.148 -5.555,0.405 -1.344,2.172 -3.748,3.619 -6.491,3.619 -1.501,0 -2.901,-0.434 -4.082,-1.183 -3.403,1.049 -6.76,2.301 -10.079,3.652 0,0 -0.2,0.081 -0.6,0.243 -0.101,0.041 -0.201,0.081 -0.301,0.122 l -0.026,0.01 c -0.153,0.062 -0.312,0.091 -0.468,0.091 -0.488,0 -0.953,-0.286 -1.156,-0.764 -0.271,-0.638 0.027,-1.374 0.664,-1.645 0.101,-0.043 0.202,-0.086 0.303,-0.129 0.179,-0.076 0.317,-0.135 0.417,-0.177 0.563,-3.539 1.224,-7.043 1.978,-10.501 m -7.114,37.013 c -4.212,0 -7.628,-3.415 -7.628,-7.628 0,-4.213 3.416,-7.628 7.628,-7.628 4.213,0 7.629,3.415 7.629,7.628 0,4.213 -3.416,7.628 -7.629,7.628 m -48.66,0 c -4.213,0 -7.628,-3.415 -7.628,-7.628 0,-4.213 3.415,-7.628 7.628,-7.628 4.213,0 7.628,3.415 7.628,7.628 0,4.213 -3.415,7.628 -7.628,7.628" id="path18" inkscape:connector-curvature="0"/>
    </clipPath>
    <radialGradient fx="0" fy="0" cx="0" cy="0" r="1" gradientUnits="userSpaceOnUse" gradientTransform="matrix(731.305,0,0,-731.305,597.112,419.689)" spreadMethod="pad" id="radialGradient28">
      <stop style="stop-opacity:1;stop-color:#22256e" offset="0" id="stop30"/>
      <stop style="stop-opacity:1;stop-color:#22256e" offset="0.2" id="stop32"/>
      <stop style="stop-opacity:1;stop-color:#0c0c26" offset="0.9" id="stop34"/>
      <stop style="stop-opacity:1;stop-color:#0c0c26" offset="1" id="stop36"/>
    </radialGradient>
  </defs>
  <sodipodi:namedview id="base" pagecolor="#ffffff" bordercolor="#666666" borderopacity="1.0" inkscape:pageopacity="0.0" inkscape:pageshadow="2" inkscape:zoom="1.3350926" inkscape:cx="61.404403" inkscape:cy="208.86532" inkscape:document-units="px" inkscape:current-layer="layer1" showgrid="false" fit-margin-top="0" fit-margin-left="0" fit-margin-right="0" fit-margin-bottom="0" inkscape:window-width="1366" inkscape:window-height="705" inkscape:window-x="-8" inkscape:window-y="-8" inkscape:window-maximized="1"/>
  <metadata id="metadata10793">
    <rdf:RDF>
      <cc:Work rdf:about="">
        <dc:format>image/svg+xml</dc:format>
        <dc:type rdf:resource="http://purl.org/dc/dcmitype/StillImage"/>
        <dc:title/>
      </cc:Work>
    </rdf:RDF>
  </metadata>
  <g inkscape:label="Calque 1" inkscape:groupmode="layer" id="layer1" transform="translate(264.3902,50.700613)">
    <g id="g5514" transform="matrix(3.3773895,0,0,-3.3773895,-32.113614,295.2799)">
      <path d="m 0,0 c -2.575,0 -3.613,-2.02 -3.613,-5.036 0,-0.683 0.028,-1.052 0.113,-1.55 0.456,0.697 1.082,1.252 1.694,1.465 0,2.376 0.413,3.67 1.806,3.67 1.323,0 1.821,-1.337 1.821,-3.585 0,-2.603 -0.81,-3.599 -1.821,-3.599 -0.967,0 -1.351,0.555 -1.351,1.252 0,0.484 0.327,0.811 0.74,0.811 0.299,0 0.498,-0.1 0.711,-0.299 -0.241,0.598 -0.498,1.096 -1.48,1.096 -0.711,0 -1.536,-0.584 -2.034,-1.309 0.413,-1.893 1.451,-3.017 3.414,-3.017 2.59,0 3.628,2.035 3.628,5.065 C 3.628,-2.02 2.59,0 0,0 Z m 3.605,-1.465 c 0.313,-0.583 0.853,-0.797 1.451,-0.882 0.313,0.142 0.669,0.356 0.868,0.527 l 0,-7.569 c 0,-0.242 -0.157,-0.341 -0.413,-0.341 l -0.156,0 0,-0.228 2.419,0 0,9.816 -1.808,0 C 5.369,-0.625 4.402,-1.138 3.605,-1.465 Z m -9.167,-7.17 -3.188,0 c 0.229,1.437 4.553,2.603 4.553,5.634 0,1.935 -1.181,3.001 -3.23,3.001 -1.806,0 -3.001,-0.782 -3.257,-2.404 l 2.362,-0.412 0.042,0.227 c -0.256,0.029 -0.498,0.143 -0.569,0.37 0.227,0.441 0.683,0.768 1.437,0.768 1.053,0 1.408,-0.626 1.408,-1.55 0,-2.376 -4.595,-2.646 -4.595,-6.103 l 0,-0.854 5.563,0 c 0.811,0.498 1.053,1.28 1.053,1.778 0,0.157 -0.015,0.27 -0.043,0.356 -0.327,-0.399 -0.797,-0.811 -1.536,-0.811 z m 22.111,6.146 c -1.166,-1.437 -2.675,-2.362 -4.495,-2.362 -1.067,0 -1.537,0.641 -1.537,1.664 0,1.096 0.612,1.736 1.537,1.736 0.925,0 1.707,-0.569 1.835,-2.404 0.669,0.143 1.351,0.498 1.679,0.882 C 15.112,-1.052 13.917,0 12.111,0 9.905,0 8.738,-1.379 8.738,-3.257 c 0,-1.793 1.196,-3.002 3.059,-3.002 0.825,0 1.537,0.213 2.106,0.512 -0.1,-2.006 -0.683,-2.888 -1.835,-2.888 -0.754,0 -1.081,0.199 -1.294,0.683 0.113,0.128 0.255,0.171 0.355,0.199 l -0.058,0.185 -2.062,-0.356 c 0.27,-1.294 1.224,-2.177 2.959,-2.177 2.703,0 3.784,2.22 3.784,5.307 0,0.242 0,0.384 -0.028,0.612 0.455,0.498 0.74,1.067 0.825,1.693" style="fill:#c7272b;fill-opacity:1;fill-rule:nonzero;stroke:none" id="path5516" inkscape:connector-curvature="0"/>
    </g>
    <g id="g5518" transform="matrix(3.3773895,0,0,-3.3773895,-141.69639,321.33646)">
      <path d="m 0,0 -4.568,7.571 -1.851,0 0,-9.82 2.42,0 0,0.228 -0.156,0 c -0.257,0 -0.413,0.1 -0.413,0.341 l 0,6.007 3.301,-5.466 c 0.926,-1.537 2.135,-2.092 3.559,-2.092 0.91,0 1.351,0.171 1.693,0.626 C 3.729,-2.776 3.288,-2.832 2.989,-2.832 2.035,-2.832 1.324,-2.192 0,0 Z M 9.286,4.782 9.443,4.597 11.279,6.006 C 10.411,7.23 8.974,7.714 7.408,7.714 4.448,7.714 2.74,5.793 2.74,2.661 c 0,-3.344 1.964,-5.052 4.939,-5.052 1.295,0 2.717,0.398 3.529,0.882 L 10.81,-0.085 C 10.212,-0.441 8.974,-0.94 7.636,-0.94 c -2.064,0 -2.947,1.253 -2.947,3.601 0,2.533 1.082,3.601 2.776,3.601 1.266,0 2.007,-0.612 2.007,-1.068 0,-0.199 -0.043,-0.327 -0.186,-0.412 z m 9.773,-4.896 C 18.73,-0.513 18.261,-0.925 17.521,-0.925 l -3.472,0 0,2.946 3.514,0 0,1.352 -3.514,0 0,2.889 3.771,0 c 0.369,0 0.427,-0.171 0.427,-0.427 l 0,-0.099 0.242,0 0,1.835 -6.86,0 0,-0.227 0.184,0 c 0.214,0 0.385,-0.086 0.385,-0.356 l 0,-9.237 5.85,0 c 0.81,0.498 1.053,1.281 1.053,1.779 0,0.157 -0.014,0.271 -0.042,0.356 z m -32.276,7.685 0,-0.227 0.1,0 c 0.185,0 0.3,-0.057 0.371,-0.185 l -3.459,-9.408 2.69,0 0,0.228 -0.114,0 c -0.228,0 -0.455,0.114 -0.455,0.413 l 2.476,7.13 1.181,-3.473 c -0.227,-0.654 -0.683,-0.996 -1.48,-0.996 -0.256,0 -0.669,0.085 -0.94,0.256 0.299,-0.697 0.669,-1.124 1.552,-1.124 0.598,0 1.039,0.142 1.409,0.342 l 0.982,-2.776 1.907,0 -3.615,9.82 -2.605,0 z M 0,7.002 0,1.679 C 0.342,0.37 1.011,-0.754 1.851,-1.751 l 0,9.322 -2.42,0 0,-0.227 0.157,0 C -0.156,7.344 0,7.244 0,7.002 Z m -29.274,-8.554 0,3.26 c -0.414,0.925 -1.481,1.893 -2.663,1.893 -0.739,0 -1.095,-0.257 -1.266,-0.484 0.185,0.099 0.427,0.128 0.64,0.128 0.555,0 1.097,-0.384 1.438,-0.94 l 0,-4.554 2.42,0 0,0.228 -0.114,0 c -0.285,0 -0.455,0.185 -0.455,0.469 z m 12.401,6.021 c 0,1.964 -1.252,3.102 -3.629,3.102 l -4.099,0 0,-0.227 0.157,0 c 0.255,0 0.413,-0.1 0.413,-0.342 l 0,-9.251 2.419,0 0,0.228 -0.157,0 c -0.256,0 -0.413,0.1 -0.413,0.341 l 0,8.042 1.566,0 c 0.954,0 1.85,-0.541 1.85,-1.907 0,-0.968 -0.697,-1.708 -1.48,-1.708 -0.527,0 -1.068,0.284 -1.295,0.782 0.171,-0.768 0.598,-1.65 0.982,-2.419 0.441,-0.882 1.111,-2.035 1.95,-3.359 l 2.092,0 -2.733,3.9 c 1.409,0.099 2.377,1.324 2.377,2.818 z m -9,3.102 -5.252,0 0,-3.8 c 1.082,-0.242 1.992,-0.882 2.448,-1.75 l 2.633,0 0,1.352 -3.23,0 0,2.889 2.875,0 c 0.74,0 1.209,-0.427 1.537,-0.825 0.028,0.085 0.042,0.199 0.042,0.356 0,0.498 -0.243,1.28 -1.053,1.778" style="fill:#243183;fill-opacity:1;fill-rule:nonzero;stroke:none" id="path5520" inkscape:connector-curvature="0"/>
    </g>
    <g id="g5522" transform="matrix(3.3773895,0,0,-3.3773895,-251.98505,287.58283)">
      <path d="m 0,0 c -0.161,-0.041 -0.338,-0.078 -0.531,-0.114 -0.194,-0.037 -0.434,-0.055 -0.718,-0.055 -0.283,0 -0.568,0.039 -0.855,0.115 -0.289,0.075 -0.549,0.2 -0.781,0.37 -0.23,0.166 -0.421,0.39 -0.568,0.666 -0.147,0.276 -0.22,0.612 -0.22,1.01 0,0.368 0.06,0.691 0.182,0.967 0.121,0.273 0.289,0.505 0.505,0.687 0.214,0.182 0.471,0.321 0.766,0.411 0.296,0.092 0.617,0.136 0.964,0.136 0.218,0 0.429,-0.021 0.634,-0.062 0.206,-0.045 0.411,-0.094 0.616,-0.157 l -0.09,-0.911 c -0.181,0.101 -0.362,0.175 -0.54,0.224 -0.179,0.049 -0.366,0.073 -0.56,0.073 -0.2,0 -0.383,-0.034 -0.543,-0.104 C -1.9,3.188 -2.038,3.094 -2.153,2.972 -2.268,2.852 -2.356,2.709 -2.419,2.539 -2.481,2.373 -2.513,2.19 -2.513,1.992 c 0,-0.203 0.036,-0.39 0.106,-0.554 0.07,-0.164 0.167,-0.305 0.291,-0.419 0.122,-0.115 0.27,-0.203 0.443,-0.263 0.173,-0.06 0.363,-0.092 0.569,-0.092 0.184,0 0.368,0.021 0.548,0.063 0.181,0.044 0.35,0.094 0.501,0.156 L 0,0" style="fill:#26aedc;fill-opacity:1;fill-rule:nonzero;stroke:none" id="path5524" inkscape:connector-curvature="0"/>
    </g>
    <g id="g5526" transform="matrix(3.3773895,0,0,-3.3773895,-246.7636,280.7909)">
      <path d="M 0,0 C 0,-0.172 0.019,-0.341 0.055,-0.503 0.091,-0.666 0.147,-0.81 0.225,-0.935 0.3,-1.06 0.398,-1.159 0.52,-1.234 0.641,-1.31 0.785,-1.347 0.955,-1.347 c 0.169,0 0.313,0.037 0.435,0.113 0.121,0.075 0.219,0.174 0.296,0.299 0.077,0.125 0.133,0.269 0.168,0.432 C 1.892,-0.341 1.909,-0.172 1.909,0 1.909,0.182 1.892,0.354 1.854,0.518 1.819,0.679 1.763,0.823 1.686,0.948 1.609,1.07 1.511,1.167 1.39,1.239 1.268,1.312 1.124,1.349 0.955,1.349 0.785,1.349 0.641,1.312 0.52,1.239 0.398,1.167 0.3,1.07 0.225,0.948 0.147,0.823 0.091,0.679 0.055,0.518 0.019,0.354 0,0.182 0,0 Z m -1.16,0 c 0,0.338 0.046,0.643 0.136,0.914 0.09,0.268 0.225,0.497 0.402,0.685 0.177,0.187 0.397,0.331 0.662,0.432 0.264,0.102 0.568,0.151 0.915,0.151 0.347,0 0.651,-0.049 0.915,-0.151 C 2.135,1.93 2.355,1.786 2.531,1.599 2.709,1.411 2.843,1.182 2.934,0.914 3.024,0.643 3.069,0.338 3.069,0 3.069,-0.333 3.024,-0.636 2.934,-0.906 2.843,-1.175 2.707,-1.404 2.529,-1.594 2.35,-1.784 2.128,-1.927 1.863,-2.029 1.601,-2.13 1.297,-2.18 0.955,-2.18 c -0.347,0 -0.651,0.05 -0.913,0.151 -0.262,0.102 -0.482,0.245 -0.661,0.435 -0.179,0.19 -0.315,0.419 -0.405,0.688 -0.09,0.27 -0.136,0.573 -0.136,0.906" style="fill:#26aedc;fill-opacity:1;fill-rule:nonzero;stroke:none" id="path5528" inkscape:connector-curvature="0"/>
    </g>
    <g id="g5530" transform="matrix(3.3773895,0,0,-3.3773895,-221.88575,282.49649)">
      <path d="m 0,0 c 0,-0.292 -0.045,-0.542 -0.133,-0.75 -0.089,-0.211 -0.215,-0.383 -0.378,-0.521 -0.162,-0.136 -0.359,-0.237 -0.586,-0.305 -0.227,-0.065 -0.479,-0.099 -0.752,-0.099 -0.274,0 -0.525,0.034 -0.753,0.099 -0.226,0.068 -0.421,0.169 -0.585,0.305 -0.164,0.138 -0.29,0.31 -0.378,0.521 -0.088,0.208 -0.133,0.458 -0.133,0.75 l 0,2.614 1.124,0 0,-2.43 c 0,-0.14 0.012,-0.27 0.034,-0.393 0.022,-0.125 0.06,-0.231 0.114,-0.328 0.055,-0.094 0.127,-0.169 0.22,-0.224 0.093,-0.052 0.213,-0.081 0.357,-0.081 0.145,0 0.264,0.029 0.357,0.081 0.092,0.055 0.165,0.13 0.22,0.224 0.054,0.097 0.092,0.203 0.114,0.328 0.022,0.123 0.034,0.253 0.034,0.393 l 0,2.43 L 0,2.614 0,0" style="fill:#26aedc;fill-opacity:1;fill-rule:nonzero;stroke:none" id="path5532" inkscape:connector-curvature="0"/>
    </g>
    <g id="g5534" transform="matrix(3.3773895,0,0,-3.3773895,-215.74904,280.23701)">
      <path d="m 0,0 0.291,0 c 0.096,0 0.188,0.01 0.272,0.028 l 0.219,0.097 0.15,0.179 C 0.968,0.38 0.986,0.471 0.986,0.581 0.986,0.69 0.968,0.778 0.932,0.852 L 0.782,1.026 0.563,1.12 C 0.479,1.138 0.387,1.148 0.291,1.148 L 0,1.148 0,0 Z m -1.123,1.945 1.341,0 c 0.648,0 1.126,-0.112 1.431,-0.336 0.307,-0.221 0.46,-0.573 0.46,-1.046 0,-0.428 -0.147,-0.761 -0.441,-1 -0.294,-0.24 -0.704,-0.36 -1.232,-0.36 l -0.436,0 0,-1.474 -1.123,0 0,4.216" style="fill:#26aedc;fill-opacity:1;fill-rule:nonzero;stroke:none" id="path5536" inkscape:connector-curvature="0"/>
    </g>
    <g id="g5538" transform="matrix(3.3773895,0,0,-3.3773895,-206.86988,273.66799)">
      <path d="m 0,0 2.973,0 0,-0.797 -1.849,0 0,-0.87 1.746,0 0,-0.796 -1.746,0 0,-0.956 1.915,0 0,-0.797 L 0,-4.216 0,0" style="fill:#26aedc;fill-opacity:1;fill-rule:nonzero;stroke:none" id="path5540" inkscape:connector-curvature="0"/>
    </g>
    <g id="g5542" transform="matrix(3.3773895,0,0,-3.3773895,-184.55547,285.09032)">
      <path d="M 0,0 0.435,0 C 0.857,0 1.182,0.107 1.407,0.319 1.633,0.533 1.746,0.851 1.746,1.273 1.746,1.697 1.63,2.015 1.4,2.229 1.171,2.442 0.849,2.549 0.435,2.549 L 0,2.549 0,0 Z m -1.124,3.382 1.534,0 C 0.777,3.382 1.112,3.351 1.419,3.286 1.725,3.221 1.988,3.108 2.208,2.95 2.427,2.791 2.599,2.578 2.721,2.307 2.844,2.039 2.905,1.7 2.905,1.291 2.905,0.898 2.844,0.565 2.718,0.296 2.593,0.025 2.42,-0.193 2.199,-0.36 1.977,-0.527 1.713,-0.649 1.407,-0.722 1.102,-0.797 0.768,-0.834 0.41,-0.834 l -1.534,0 0,4.216" style="fill:#26aedc;fill-opacity:1;fill-rule:nonzero;stroke:none" id="path5544" inkscape:connector-curvature="0"/>
    </g>
    <g id="g5546" transform="matrix(3.3773895,0,0,-3.3773895,-160.09303,282.49649)">
      <path d="m 0,0 c 0,-0.292 -0.044,-0.542 -0.133,-0.75 -0.089,-0.211 -0.215,-0.383 -0.378,-0.521 -0.163,-0.136 -0.359,-0.237 -0.586,-0.305 -0.227,-0.065 -0.478,-0.099 -0.753,-0.099 -0.272,0 -0.524,0.034 -0.752,0.099 -0.226,0.068 -0.421,0.169 -0.585,0.305 -0.164,0.138 -0.29,0.31 -0.378,0.521 -0.088,0.208 -0.133,0.458 -0.133,0.75 l 0,2.614 1.124,0 0,-2.43 c 0,-0.14 0.012,-0.27 0.033,-0.393 0.023,-0.125 0.061,-0.231 0.115,-0.328 0.055,-0.094 0.128,-0.169 0.22,-0.224 0.093,-0.052 0.212,-0.081 0.356,-0.081 0.145,0 0.265,0.029 0.358,0.081 0.093,0.055 0.165,0.13 0.22,0.224 0.054,0.097 0.092,0.203 0.115,0.328 0.021,0.123 0.033,0.253 0.033,0.393 l 0,2.43 L 0,2.614 0,0" style="fill:#26aedc;fill-opacity:1;fill-rule:nonzero;stroke:none" id="path5548" inkscape:connector-curvature="0"/>
    </g>
    <g id="g5550" transform="matrix(3.3773895,0,0,-3.3773895,-151.81843,273.66799)">
      <path d="m 0,0 1.771,0 0.894,-2.802 0.012,0 0.935,2.802 1.705,0 0,-4.216 -1.1,0 0.018,3.237 -0.011,0 -1.076,-3.237 -1.034,0 -1.026,3.237 -0.013,0 L 1.1,-4.216 0,-4.216 0,0" style="fill:#26aedf;fill-opacity:0.94117647;fill-rule:nonzero;stroke:none" id="path5552" inkscape:connector-curvature="0"/>
    </g>
    <g id="g5554" transform="matrix(3.3773895,0,0,-3.3773895,-127.8187,280.7909)">
      <path d="M 0,0 C 0,-0.172 0.017,-0.341 0.055,-0.503 0.09,-0.666 0.147,-0.81 0.224,-0.935 0.299,-1.06 0.398,-1.159 0.52,-1.234 0.641,-1.31 0.785,-1.347 0.954,-1.347 c 0.169,0 0.313,0.037 0.435,0.113 0.121,0.075 0.22,0.174 0.295,0.299 0.078,0.125 0.134,0.269 0.17,0.432 C 1.891,-0.341 1.908,-0.172 1.908,0 1.908,0.182 1.891,0.354 1.854,0.518 1.818,0.679 1.762,0.823 1.684,0.948 1.609,1.07 1.51,1.167 1.389,1.239 1.267,1.312 1.123,1.349 0.954,1.349 0.785,1.349 0.641,1.312 0.52,1.239 0.398,1.167 0.299,1.07 0.224,0.948 0.147,0.823 0.09,0.679 0.055,0.518 0.017,0.354 0,0.182 0,0 Z m -1.16,0 c 0,0.338 0.045,0.643 0.135,0.914 0.091,0.268 0.225,0.497 0.402,0.685 0.178,0.187 0.397,0.331 0.662,0.432 0.265,0.102 0.568,0.151 0.915,0.151 0.347,0 0.651,-0.049 0.916,-0.151 C 2.134,1.93 2.354,1.786 2.531,1.599 2.708,1.411 2.842,1.182 2.934,0.914 3.023,0.643 3.069,0.338 3.069,0 3.069,-0.333 3.023,-0.636 2.934,-0.906 2.842,-1.175 2.707,-1.404 2.528,-1.594 2.349,-1.784 2.127,-1.927 1.863,-2.029 1.6,-2.13 1.297,-2.18 0.954,-2.18 c -0.347,0 -0.65,0.05 -0.913,0.151 -0.262,0.102 -0.481,0.245 -0.661,0.435 -0.179,0.19 -0.314,0.419 -0.405,0.688 -0.09,0.27 -0.135,0.573 -0.135,0.906" style="fill:#26aedc;fill-opacity:1;fill-rule:nonzero;stroke:none" id="path5556" inkscape:connector-curvature="0"/>
    </g>
    <g id="g5558" transform="matrix(3.3773895,0,0,-3.3773895,-115.167,273.66799)">
      <path d="m 0,0 1.431,0 1.425,-2.864 0.014,0 L 2.852,0 l 1.025,0 0,-4.216 -1.395,0 -1.474,2.88 -0.012,0 0.036,-2.88 L 0,-4.216 0,0" style="fill:#26aedc;fill-opacity:1;fill-rule:nonzero;stroke:none" id="path5560" inkscape:connector-curvature="0"/>
    </g>
    <g id="g5562" transform="matrix(3.3773895,0,0,-3.3773895,-95.456554,285.09032)">
      <path d="M 0,0 0.435,0 C 0.857,0 1.182,0.107 1.407,0.319 1.633,0.533 1.746,0.851 1.746,1.273 1.746,1.697 1.63,2.015 1.401,2.229 1.172,2.442 0.849,2.549 0.435,2.549 L 0,2.549 0,0 Z m -1.124,3.382 1.534,0 C 0.777,3.382 1.113,3.351 1.419,3.286 1.725,3.221 1.988,3.108 2.208,2.95 2.427,2.791 2.599,2.578 2.722,2.307 2.844,2.039 2.906,1.7 2.906,1.291 2.906,0.898 2.844,0.565 2.719,0.296 2.594,0.025 2.421,-0.193 2.199,-0.36 1.977,-0.527 1.713,-0.649 1.407,-0.722 1.102,-0.797 0.768,-0.834 0.41,-0.834 l -1.534,0 0,4.216" style="fill:#26aedc;fill-opacity:1;fill-rule:nonzero;stroke:none" id="path5564" inkscape:connector-curvature="0"/>
    </g>
    <g id="g5566" transform="matrix(3.3773895,0,0,-3.3773895,-83.37901,273.66799)">
      <path d="m 0,0 2.973,0 0,-0.797 -1.849,0 0,-0.87 1.746,0 0,-0.796 -1.746,0 0,-0.956 1.915,0 0,-0.797 L 0,-4.216 0,0" style="fill:#26aedc;fill-opacity:1;fill-rule:nonzero;stroke:none" id="path5568" inkscape:connector-curvature="0"/>
    </g>
    <g id="g5570" transform="matrix(3.3773895,0,0,-3.3773895,-64.968859,273.66799)">
      <path d="m 0,0 2.822,0 0,-0.797 -1.698,0 0,-0.924 1.627,0 0,-0.797 -1.627,0 0,-1.698 L 0,-4.216 0,0" style="fill:#26aedc;fill-opacity:1;fill-rule:nonzero;stroke:none" id="path5572" inkscape:connector-curvature="0"/>
    </g>
    <g id="g5574" transform="matrix(3.3773895,0,0,-3.3773895,-48.706729,269.85154)">
      <path d="m 0,0 1.13,0 -0.778,-0.869 -0.762,0 L 0,0 Z m -1.426,-1.13 2.973,0 0,-0.797 -1.849,0 0,-0.87 1.746,0 0,-0.796 -1.746,0 0,-0.956 1.915,0 0,-0.797 -3.039,0 0,4.216" style="fill:#26aedc;fill-opacity:1;fill-rule:nonzero;stroke:none" id="path5576" inkscape:connector-curvature="0"/>
    </g>
    <g id="g5578" transform="matrix(3.3773895,0,0,-3.3773895,-40.952243,273.66799)">
      <path d="m 0,0 1.771,0 0.894,-2.802 0.012,0 0.936,2.802 1.704,0 0,-4.216 -1.099,0 0.017,3.237 -0.011,0 -1.076,-3.237 -1.034,0 -1.026,3.237 -0.013,0 L 1.1,-4.216 0,-4.216 0,0" style="fill:#26aedc;fill-opacity:1;fill-rule:nonzero;stroke:none" id="path5580" inkscape:connector-curvature="0"/>
    </g>
    <path d="m -20.157655,287.90706 3.796185,0 0,-14.23942 -3.796185,0 0,14.23942 z" style="fill:#26aedc;fill-opacity:1;fill-rule:nonzero;stroke:none" id="path5582" inkscape:connector-curvature="0"/>
    <g id="g5584" transform="matrix(3.3773895,0,0,-3.3773895,-13.355593,273.66799)">
      <path d="m 0,0 1.431,0 1.425,-2.864 0.013,0 L 2.85,0 l 1.027,0 0,-4.216 -1.395,0 -1.475,2.88 -0.012,0 0.037,-2.88 L 0,-4.216 0,0" style="fill:#26aedc;fill-opacity:1;fill-rule:nonzero;stroke:none" id="path5586" inkscape:connector-curvature="0"/>
    </g>
    <path d="m 2.7410454,287.90706 3.7928084,0 0,-14.23942 -3.7928084,0 0,14.23942 z" style="fill:#26aedc;fill-opacity:1;fill-rule:nonzero;stroke:none" id="path5588" inkscape:connector-curvature="0"/>
    <g id="g5590" transform="matrix(3.3773895,0,0,-3.3773895,9.536353,273.66799)">
      <path d="m 0,0 1.431,0 1.426,-2.864 0.013,0 L 2.852,0 l 1.026,0 0,-4.216 -1.395,0 -1.475,2.88 -0.012,0 0.036,-2.88 L 0,-4.216 0,0" style="fill:#26aedc;fill-opacity:1;fill-rule:nonzero;stroke:none" id="path5592" inkscape:connector-curvature="0"/>
    </g>
    <g id="g5594" transform="matrix(3.3773895,0,0,-3.3773895,25.345913,273.66799)">
      <path d="m 0,0 2.973,0 0,-0.797 -1.849,0 0,-0.87 1.746,0 0,-0.796 -1.746,0 0,-0.956 1.915,0 0,-0.797 L 0,-4.216 0,0" style="fill:#26aedc;fill-opacity:1;fill-rule:nonzero;stroke:none" id="path5596" inkscape:connector-curvature="0"/>
    </g>
    <g transform="matrix(3.3773895,0,0,-3.3773895,-394.87564,2719.1683)" id="g5598">
      <g id="g5600">
        <g id="g5606">
          <path d="m 84.427,770.202 c -0.613,0.224 -1.287,0.377 -1.946,0.48 -4.463,-2.911 -4.471,-4.22 -4.22,-4.884 0.032,-0.086 0.165,-0.274 0.284,-0.393 0.425,-0.425 1.167,-0.791 2.343,-1.072 0.373,0.265 0.711,0.479 0.94,0.632 1.813,1.208 2.551,1.938 3.056,2.49 0.686,0.752 0.941,1.151 0.862,1.568 -0.136,0.708 -1.016,1.064 -1.319,1.179" style="fill:url(#radialGradient5608);stroke:none" id="path5618" inkscape:connector-curvature="0"/>
        </g>
      </g>
    </g>
    <g transform="matrix(3.3773895,0,0,-3.3773895,-394.87564,2719.1683)" id="g5620">
      <g id="g5622">
        <g id="g5628">
          <path d="m 78.991,766.55 c 0,0.919 0.862,2.109 2.878,3.724 -3.851,-2.627 -3.846,-3.843 -3.608,-4.476 0.032,-0.086 0.165,-0.274 0.284,-0.393 0.425,-0.425 1.167,-0.791 2.343,-1.072 0.289,0.205 0.557,0.38 0.77,0.519 -1.003,0.098 -2.075,0.655 -2.339,0.918 -0.048,0.05 -0.328,0.315 -0.328,0.78" style="fill:url(#radialGradient5630);stroke:none" id="path5644" inkscape:connector-curvature="0"/>
        </g>
      </g>
    </g>
    <g transform="matrix(3.3773895,0,0,-3.3773895,-394.87564,2719.1683)" id="g5646">
      <g id="g5648">
        <g id="g5654">
          <path d="m 87.952,791.891 c 1.005,0.42 2.024,0.821 2.97,1.332 0.725,0.392 1.163,0.738 1.163,1.554 0,0.319 -0.107,0.64 -0.286,0.924 -0.275,0.448 -0.68,0.815 -1.101,1.15 -0.36,0.282 -0.747,0.529 -1.145,0.76 0.121,0.109 0.242,0.222 0.36,0.342 2.244,2.243 2.956,4.927 2.956,6.853 0,0.55 -0.044,0.957 -0.047,0.987 -0.048,0.649 -0.159,1.296 -0.334,1.931 l 0,10e-4 c -0.075,0.627 -0.577,1.687 -1.055,2.466 -0.281,0.505 -1.024,1.49 -1.571,1.998 -0.645,0.663 -1.518,1.253 -1.799,1.41 -0.619,0.379 -1.273,0.685 -1.948,0.919 -0.234,0.117 -0.44,0.199 -0.59,0.247 -0.448,0.144 -1.5,0.414 -2.929,0.414 -0.954,0 -1.823,-0.179 -2.053,-0.229 -0.237,-2.743 -0.57,-6.525 -0.589,-6.717 -0.046,-0.491 -0.08,-1.445 -0.469,-1.834 -0.216,-0.217 -0.646,-0.522 -1.093,-0.761 -0.3,-0.161 -0.564,-0.294 -0.808,-0.414 -1.021,-0.641 -2.522,-1.474 -3.441,-2.394 -1.138,-1.138 -2.036,-2.696 -2.036,-4.427 0,-2.469 1.877,-4.042 2.759,-4.793 2.014,-1.757 5.956,-3.247 7.743,-4.036 0.77,0.362 1.546,0.709 2.326,1.046 1.003,0.433 2.01,0.855 3.017,1.271" style="fill:url(#radialGradient5656);stroke:none" id="path5670" inkscape:connector-curvature="0"/>
        </g>
      </g>
    </g>
    <g transform="matrix(3.3773895,0,0,-3.3773895,-394.87564,2719.1683)" id="g5672">
      <g id="g5674">
        <g id="g5680">
          <path d="m 83.986,790.204 c -0.063,0.02 -6.736,2.115 -9.115,4.494 -1.228,1.228 -2.136,2.662 -2.136,4.073 0,2.361 2.5,4.912 5.613,6.843 -0.283,-0.15 -0.532,-0.276 -0.764,-0.39 -1.021,-0.641 -2.522,-1.474 -3.441,-2.394 -1.138,-1.138 -2.036,-2.696 -2.036,-4.427 0,-2.469 1.877,-4.042 2.759,-4.793 2.014,-1.757 5.956,-3.247 7.743,-4.036 0.457,0.216 0.916,0.425 1.377,0.63" style="fill:url(#radialGradient5682);stroke:none" id="path5692" inkscape:connector-curvature="0"/>
        </g>
      </g>
    </g>
    <g transform="matrix(3.3773895,0,0,-3.3773895,-394.87564,2719.1683)" id="g5694">
      <g id="g5696">
        <g id="g5702">
          <path d="m 87.952,791.891 c 1.005,0.42 2.024,0.821 2.97,1.332 0.725,0.392 1.163,0.738 1.163,1.554 0,0.319 -0.107,0.64 -0.286,0.924 -0.275,0.448 -0.68,0.815 -1.101,1.15 -0.36,0.282 -0.747,0.529 -1.145,0.76 -1.342,-1.13 -2.327,-1.69 -4.033,-2.231 -1.203,-0.391 -2.253,-0.39 -2.827,-0.39 -4.093,0 -6.643,2.522 -7.115,2.994 -1.451,1.45 -1.878,2.819 -2.053,3.225 -0.502,-0.814 -0.79,-1.636 -0.79,-2.438 0,-1.411 0.908,-2.845 2.136,-4.073 2.379,-2.379 9.052,-4.474 9.115,-4.494 0.316,0.141 0.632,0.279 0.949,0.416 1.003,0.433 2.01,0.855 3.017,1.271" style="fill:url(#radialGradient5704);stroke:none" id="path5716" inkscape:connector-curvature="0"/>
        </g>
      </g>
    </g>
    <g transform="matrix(3.3773895,0,0,-3.3773895,-394.87564,2719.1683)" id="g5718">
      <g id="g5720">
        <g id="g5726">
          <path d="m 88.39,812.077 c -0.471,1.615 -2.207,2.477 -2.865,2.688 -0.448,0.144 -1.5,0.414 -2.929,0.414 -0.954,0 -1.823,-0.179 -2.053,-0.229 l -0.019,-0.207 c 1.782,-0.033 2.667,-1.076 2.699,-2.077 0.008,-0.291 -0.155,-0.65 -0.441,-0.868 -0.192,-0.147 -0.414,-0.23 -0.647,-0.279 -0.459,-0.095 -1.007,-0.076 -1.48,0.011 0.261,-1.549 1.581,-4.37 3.984,-4.37 1.36,0 2.327,0.772 2.93,1.508 0.409,0.497 0.65,0.978 0.734,1.191 0.286,0.729 0.305,1.468 0.087,2.218" style="fill:url(#radialGradient5728);stroke:none" id="path5742" inkscape:connector-curvature="0"/>
        </g>
      </g>
    </g>
    <g transform="matrix(3.3773895,0,0,-3.3773895,-394.87564,2719.1683)" id="g5744">
      <g id="g5746">
        <g id="g5752">
          <path d="m 73.525,801.209 c 0.175,-0.406 0.602,-1.775 2.053,-3.225 0.472,-0.472 3.022,-2.994 7.115,-2.994 0.617,0 1.785,-0.002 3.098,0.485 0.857,0.317 1.775,0.842 2.643,1.709 0.255,0.256 1.668,1.666 1.668,3.792 0,0.74 -0.207,1.419 -0.638,2.039 -0.123,0.177 -0.854,1.398 -2.987,1.598 -0.832,0.078 -1.649,-0.038 -2.449,-0.278 -1.094,-0.329 -5.221,-2.119 -3.898,-5.741 0.078,-0.214 0.515,-0.977 1.156,-1.213 0.182,-0.066 0.209,0.009 0.229,0.106 l 0.008,0.117 c 0.017,0.143 0.022,0.289 0.054,0.429 0.111,0.486 0.411,0.835 0.832,1.087 0.381,0.227 0.8,0.346 1.233,0.426 0.297,0.054 0.593,0.06 0.887,-0.022 0.402,-0.112 0.712,-0.337 0.888,-0.725 0.069,-0.155 0.098,-0.313 0.098,-0.473 0,-1.696 -2.014,-2.556 -3.967,-2.556 -0.252,0 -0.792,0.037 -0.896,0.07 l 0.202,0.089 c 0.266,0.126 0.36,0.362 0.254,0.636 -0.061,0.161 -0.164,0.296 -0.289,0.411 -0.467,0.435 -1.025,0.665 -1.656,0.723 -0.232,0.02 -0.462,0.003 -0.679,-0.095 -0.201,-0.09 -0.31,-0.244 -0.31,-0.429 0,-0.333 0.371,-0.658 0.452,-0.743 l -0.01,-0.016 c -0.503,0.257 -1.317,0.664 -1.954,1.301 -0.757,0.757 -0.89,1.223 -0.89,1.599 0,0.413 0.154,0.527 0.334,0.527 0.203,0 0.481,-0.152 0.572,-0.203 0.222,-0.125 0.422,-0.289 0.643,-0.416 l 0.06,-0.018 c 0.181,0 0.291,0.485 0.279,0.747 -0.03,0.729 -0.198,1.422 -0.554,2.063 -0.375,0.677 -0.899,1.184 -1.583,1.502 -0.823,-0.741 -1.511,-1.521 -1.998,-2.309" style="fill:url(#radialGradient5754);stroke:none" id="path5766" inkscape:connector-curvature="0"/>
        </g>
      </g>
    </g>
    <g transform="matrix(3.3773895,0,0,-3.3773895,-394.87564,2719.1683)" id="g5768">
      <g id="g5770">
        <g id="g5776">
          <path d="m 88.495,808.164 c -0.369,0.493 -0.466,1.029 -0.206,1.589 0.257,0.555 0.714,0.853 1.332,0.894 0.45,0.03 1.057,-0.213 1.36,-0.649 0.168,-0.243 0.264,-0.503 0.289,-0.775 0.276,0.539 0.172,0.906 0.163,0.968 -0.281,0.505 -1.024,1.49 -1.571,1.998 -0.127,0.056 -0.278,0.079 -0.414,0.072 -0.427,-0.025 -0.927,-0.243 -1.03,-0.285 0.187,-0.715 0.158,-1.42 -0.115,-2.117 -0.076,-0.193 -0.28,-0.603 -0.619,-1.047 -0.68,-1.015 -1.823,-1.817 -3.036,-1.817 -0.931,0 -1.741,0.368 -2.383,0.94 -1.492,-1.15 -3.71,-3.105 -3.989,-3.411 0.354,-0.095 1.089,-0.632 1.089,-1.643 0,-0.906 -0.68,-1.348 -1.249,-1.348 -0.292,0 -0.546,0.127 -0.637,0.177 0.196,-0.513 0.282,-1.051 0.282,-1.607 0,-0.23 -0.059,-0.587 -0.238,-0.805 l -0.057,-0.061 -0.085,-0.031 -0.06,0.018 c -0.221,0.127 -0.421,0.291 -0.643,0.416 -0.091,0.051 -0.369,0.203 -0.572,0.203 -0.334,-0.097 -0.203,-0.776 -0.128,-0.947 0.178,-0.413 0.465,-0.751 0.79,-1.063 l 0.23,-0.208 c 0.567,0.124 0.934,0.288 1.218,0.417 -0.139,0.258 -0.213,0.552 -0.18,0.862 0.049,0.455 0.368,0.811 0.957,0.838 0.32,0.014 0.635,-0.08 0.91,-0.246 -0.403,3.02 3.125,4.539 4.125,4.839 0.712,0.214 1.437,0.329 2.174,0.297 -0.15,0.274 -0.21,0.612 -0.146,0.94 0.155,0.806 0.773,1.347 1.554,1.329 0.422,-0.01 0.798,-0.169 1.113,-0.46 l 0.192,-0.258 c 0.392,0.388 1.1,1.206 1.319,1.477 -0.608,-0.202 -1.343,-0.023 -1.739,0.504 z m 4.328,-2.385 -10e-4,0.014 c -0.048,0.649 -0.159,1.296 -0.334,1.931 l 0,10e-4 -0.001,0 c 0.041,-0.239 0.058,-0.48 0.058,-0.724 0,-2.46 -2.128,-4.914 -2.502,-5.354 l -0.001,0 c 0.04,-0.218 0.06,-0.441 0.06,-0.671 0,-1.197 -0.448,-2.168 -0.885,-2.833 0.916,0.81 1.526,1.621 1.704,1.858 -0.412,0.29 -0.6,0.885 -0.516,1.314 0.113,0.571 0.409,0.994 0.909,1.265 0.308,0.168 0.696,0.23 1.065,0.107 0.568,1.649 0.46,2.936 0.444,3.092 z m -11.065,8.545 c -0.178,0.065 -0.359,0.114 -0.54,0.151 -0.153,-0.044 -0.526,-0.171 -0.738,-0.253 -0.066,-0.752 -0.135,-1.547 -0.202,-2.304 0.876,0.576 1.992,1.153 2.699,1.43 -0.309,0.512 -0.815,0.829 -1.219,0.976" style="fill:url(#radialGradient5778);stroke:none" id="path5788" inkscape:connector-curvature="0"/>
        </g>
      </g>
    </g>
    <g transform="matrix(3.3773895,0,0,-3.3773895,-394.87564,2719.1683)" id="g5790">
      <g id="g5792">
        <g id="g5798">
          <path d="m 88.063,813.599 c -0.619,0.379 -1.273,0.685 -1.948,0.919 l -0.015,0.007 c 0.292,-0.144 0.629,-0.344 0.958,-0.602 l 0,10e-4 c 0.448,-0.107 0.846,-0.241 0.975,-0.309 l 0.03,-0.016" style="fill:url(#radialGradient5800);stroke:none" id="path5812" inkscape:connector-curvature="0"/>
        </g>
      </g>
    </g>
    <g transform="matrix(3.3773895,0,0,-3.3773895,-394.87564,2719.1683)" id="g5814">
      <g id="g5816">
        <g id="g5822">
          <path d="m 81.033,806.334 c -0.271,-0.627 -0.162,-1.313 0.302,-1.78 0.381,-0.383 0.83,-0.496 1.319,-0.433 0.197,0.025 0.382,0.1 0.547,0.209 0.198,0.132 0.378,0.284 0.508,0.496 0.633,1.036 -0.052,2.39 -1.303,2.401 -0.574,0.008 -1.142,-0.363 -1.373,-0.893" style="fill:url(#radialGradient5824);stroke:none" id="path5838" inkscape:connector-curvature="0"/>
        </g>
      </g>
    </g>
    <g transform="matrix(3.3773895,0,0,-3.3773895,-394.87564,2719.1683)" id="g5840">
      <g id="g5842">
        <g id="g5848">
          <path d="m 92.869,804.806 c 0,0.505 -0.037,0.89 -0.046,0.972 0.017,-0.157 0.123,-1.443 -0.444,-3.091 -0.369,0.123 -0.757,0.061 -1.065,-0.107 -0.5,-0.271 -0.796,-0.694 -0.909,-1.265 -0.084,-0.429 0.104,-1.024 0.516,-1.314 -0.178,-0.237 -0.788,-1.048 -1.704,-1.858 -0.339,-0.515 -0.672,-0.847 -0.783,-0.959 -0.868,-0.867 -1.786,-1.392 -2.643,-1.709 -0.092,-0.034 -0.183,-0.065 -0.271,-0.095 1.706,0.541 2.691,1.101 4.033,2.231 0.121,0.109 0.242,0.222 0.36,0.342 2.244,2.243 2.956,4.927 2.956,6.853" style="fill:url(#radialGradient5850);stroke:none" id="path5864" inkscape:connector-curvature="0"/>
        </g>
      </g>
    </g>
    <g transform="matrix(3.3773895,0,0,-3.3773895,-394.87564,2719.1683)" id="g5866">
      <g id="g5868">
        <g id="g5874">
          <path d="m 77.106,802.016 c 0.356,-0.641 0.524,-1.334 0.554,-2.063 0.011,-0.253 -0.092,-0.715 -0.262,-0.746 l 0.068,0.03 0.057,0.061 c 0.179,0.218 0.238,0.575 0.238,0.805 0,0.709 -0.141,1.39 -0.47,2.026 -0.358,0.693 -0.881,1.217 -1.584,1.553 l -0.184,-0.164 c 0.684,-0.318 1.208,-0.825 1.583,-1.502" style="fill:url(#radialGradient5876);stroke:none" id="path5886" inkscape:connector-curvature="0"/>
        </g>
      </g>
    </g>
    <g transform="matrix(3.3773895,0,0,-3.3773895,-394.87564,2719.1683)" id="g5888">
      <g id="g5890">
        <g id="g5896">
          <path d="m 87.569,808.668 c -0.603,-0.736 -1.57,-1.508 -2.93,-1.508 -2.403,0 -3.723,2.821 -3.984,4.37 -0.002,-2.091 1.592,-4.535 3.993,-4.535 1.213,0 2.356,0.802 3.036,1.817 l -0.115,-0.144" style="fill:url(#radialGradient5898);stroke:none" id="path5908" inkscape:connector-curvature="0"/>
        </g>
      </g>
    </g>
    <g transform="matrix(3.3773895,0,0,-3.3773895,-394.87564,2719.1683)" id="g5910">
      <g id="g5912">
        <g id="g5918">
          <path d="m 78.484,797.604 c 0.217,0.098 0.447,0.115 0.679,0.095 0.631,-0.058 1.189,-0.288 1.656,-0.723 l 0.195,-0.226 c -0.056,0.105 -0.131,0.2 -0.218,0.285 -0.448,0.44 -0.998,0.687 -1.625,0.769 -0.231,0.03 -0.462,0.022 -0.683,-0.063 -0.253,-0.099 -0.371,-0.296 -0.314,-0.566 0,0.185 0.109,0.339 0.31,0.429" style="fill:url(#radialGradient5920);stroke:none" id="path5930" inkscape:connector-curvature="0"/>
        </g>
      </g>
    </g>
    <g transform="matrix(3.3773895,0,0,-3.3773895,-394.87564,2719.1683)" id="g5932">
      <g id="g5934">
        <g id="g5940">
          <path d="m 76.106,799.843 c -0.18,0 -0.334,-0.114 -0.334,-0.527 0,-0.376 0.133,-0.842 0.89,-1.599 0.637,-0.637 1.451,-1.044 1.954,-1.301 l 0.01,0.016 c -0.038,0.04 -0.141,0.133 -0.238,0.255 -0.73,0.374 -1.325,0.863 -1.62,1.146 -0.325,0.312 -0.612,0.65 -0.79,1.063 -0.075,0.171 -0.206,0.85 0.128,0.947" style="fill:url(#radialGradient5942);stroke:none" id="path5952" inkscape:connector-curvature="0"/>
        </g>
      </g>
    </g>
    <g transform="matrix(3.3773895,0,0,-3.3773895,-394.87564,2719.1683)" id="g5954">
      <g id="g5956">
        <g id="g5962">
          <path d="m 85.515,798.326 c 0,0.133 -0.02,0.265 -0.067,0.395 0.028,-0.082 0.273,-1.866 -2.14,-2.543 -0.8,-0.225 -1.607,-0.324 -2.43,-0.238 l -0.024,-0.011 -0.202,-0.089 c 0.104,-0.033 0.644,-0.07 0.896,-0.07 1.953,0 3.967,0.86 3.967,2.556" style="fill:url(#radialGradient5964);stroke:none" id="path5974" inkscape:connector-curvature="0"/>
        </g>
      </g>
    </g>
    <g transform="matrix(3.3773895,0,0,-3.3773895,-394.87564,2719.1683)" id="g5976">
      <g id="g5978">
        <g id="g5984">
          <path d="m 83.218,812.743 c -0.072,0.976 -0.958,1.967 -2.694,2 l -0.015,-0.189 c 0.426,-0.014 0.844,-0.082 1.249,-0.23 0.544,-0.198 1.272,-0.703 1.46,-1.581" style="fill:url(#radialGradient5986);stroke:none" id="path6000" inkscape:connector-curvature="0"/>
        </g>
      </g>
    </g>
    <g transform="matrix(3.3773895,0,0,-3.3773895,-394.87564,2719.1683)" id="g6002">
      <g id="g6004">
        <g id="g6010">
          <path d="m 93.334,739.754 c -0.57,2.645 -1.589,7.351 -1.648,7.622 l 0,-10e-4 c -0.036,0.165 -0.091,0.428 -0.16,0.749 -0.293,1.378 -0.836,3.934 -0.92,4.244 l -10e-4,0.003 c -0.135,0.853 -0.496,2.324 -0.679,3.227 l -0.001,0 c -0.129,0.588 -0.56,2.554 -0.699,3.264 l -0.005,0.036 c -0.229,1.24 -0.538,2.445 -0.764,3.547 l -10e-4,0 -0.266,1.219 c -0.365,1.678 -0.472,2.171 -0.504,2.316 l -0.002,0.015 c -0.172,0.897 -0.537,2.447 -1.512,3.423 -0.403,0.402 -0.812,0.685 -1.488,0.911 0.435,-0.157 1.232,-0.529 1.365,-1.254 0.135,-0.744 -0.463,-1.347 -0.919,-1.846 -0.456,-0.498 -1.297,-1.359 -3.144,-2.507 -0.566,-0.352 -2.275,-1.292 -3.008,-2.505 -0.374,-0.619 -0.579,-1.186 -0.723,-1.835 -2.199,-13.13 -5.063,-23.757 -6.056,-28.167 -0.176,-0.783 -0.935,-3.155 0.949,-3.709 1.417,-0.417 3.981,-0.607 8.437,-0.743 4.007,-0.123 7.517,0.124 10.917,0.892 1.776,0.4 2.585,0.688 2.614,2.061 0.024,1.088 -1.519,7.824 -1.782,9.038" style="fill:url(#linearGradient6012);stroke:none" id="path6030" inkscape:connector-curvature="0"/>
        </g>
      </g>
    </g>
    <g transform="matrix(3.3773895,0,0,-3.3773895,-394.87564,2719.1683)" id="g6032">
      <g id="g6034">
        <g id="g6040">
          <path d="m 91.686,747.376 c -0.193,0.89 -0.983,4.647 -1.081,4.996 0.065,-0.422 0.35,-1.258 -0.687,-2.127 -1.629,-1.368 -5.892,-4.55 -11.812,-6.517 -0.706,-2.507 -0.269,-3.818 2.809,-2.886 5.066,1.494 11.055,5.091 10.771,6.534 z m -1.76,8.222 c -0.124,0.563 -0.565,2.574 -0.701,3.276 0.064,-0.42 -0.225,-0.751 -0.399,-0.923 -0.469,-0.466 -1.031,-0.993 -1.44,-1.356 -2.421,-2.15 -4.868,-3.481 -5.662,-3.905 l -0.014,-0.008 c -0.295,-0.725 -0.601,-1.451 -0.906,-2.166 -0.415,-0.974 -0.626,-1.517 -1.003,-2.407 4.532,2.112 7.782,4.222 9.035,5.407 1.062,1.003 1.119,1.707 1.09,2.082 z m -6.525,1.896 c 0.621,0.413 3.078,2.473 4.07,3.466 0.556,0.557 0.968,1.09 0.986,1.485 -0.105,0.482 -0.671,3.063 -0.773,3.55 0.041,-0.212 -0.071,-0.395 -0.132,-0.467 -0.907,-1.075 -2.34,-2.471 -3.689,-3.484 0.225,-1.258 0.005,-2.83 -0.463,-4.55 l 10e-4,0" style="fill:url(#linearGradient6042);stroke:none" id="path6058" inkscape:connector-curvature="0"/>
        </g>
      </g>
    </g>
    <g transform="matrix(3.3773895,0,0,-3.3773895,-394.87564,2719.1683)" id="g6060">
      <g id="g6062">
        <g id="g6068">
          <path d="m 82.481,770.682 c 0.533,0 1.686,-0.189 2.011,-0.29 l 0.192,-0.063 c 0.435,-0.157 1.232,-0.529 1.365,-1.254 0.135,-0.744 -0.463,-1.347 -0.919,-1.846 -0.456,-0.498 -1.297,-1.359 -3.144,-2.507 -0.566,-0.352 -2.275,-1.292 -3.008,-2.505 -0.374,-0.619 -0.579,-1.186 -0.723,-1.835 0.085,0.66 0.27,1.283 0.607,1.905 0.676,1.249 2.29,2.227 2.966,2.678 1.813,1.208 2.551,1.938 3.056,2.49 0.686,0.752 0.941,1.152 0.862,1.568 -0.136,0.708 -1.016,1.064 -1.319,1.179 -0.613,0.225 -1.287,0.377 -1.946,0.48" style="fill:url(#linearGradient6070);stroke:none" id="path6084" inkscape:connector-curvature="0"/>
        </g>
      </g>
    </g>
    <g transform="matrix(3.3773895,0,0,-3.3773895,-394.87564,2719.1683)" id="g6086">
      <g id="g6088">
        <g id="g6094">
          <path d="m 92.298,795.191 c 0.015,-0.052 0.067,-0.271 0.067,-0.467 0,-0.684 -0.161,-1.158 -1.295,-1.77 -0.971,-0.524 -1.985,-0.939 -2.99,-1.369 l -3.022,-1.253 c -2.005,-0.851 -3.986,-1.76 -5.887,-2.818 -1.885,-1.073 -3.71,-2.298 -5.168,-3.929 -0.894,-1.127 -1.278,-2.313 -0.993,-3.507 1.436,-6.023 5.251,-14.279 5.251,-14.279 -0.31,0.822 -0.226,2.632 8.219,7.244 0.192,0.105 0.54,0.238 0.8,0.911 0.473,1.226 1.076,3.139 1.426,4.194 l 0,0 c 0.072,0.219 0.281,0.862 0.432,1.349 0.051,0.169 0.108,0.352 0.166,0.539 0.222,0.717 0.472,1.528 0.561,1.831 l 0.002,0.004 c 0.385,1.269 0.881,3.044 1.163,4.085 l -0.001,0 c 0.187,0.678 0.45,1.746 0.669,2.722 0.164,0.724 0.282,1.321 0.308,1.451 l 0.001,0.007 0.008,0.028 c 0.213,1.008 0.482,2.36 0.482,3.556 0,0.704 -0.107,1.246 -0.199,1.471" style="fill:url(#linearGradient6096);stroke:none" id="path6116" inkscape:connector-curvature="0"/>
        </g>
      </g>
    </g>
    <g transform="matrix(3.3773895,0,0,-3.3773895,-394.87564,2719.1683)" id="g6118">
      <g id="g6120">
        <g id="g6126">
          <path d="m 88.933,788.586 c -4.168,-1.139 -7.961,-3.085 -11.095,-5.704 -0.722,-0.603 -1.84,-1.676 -1.929,-1.763 0.251,-0.814 0.584,-1.824 0.985,-2.885 0.146,0.141 0.807,0.746 1.189,1.067 3.004,2.522 6.726,4.284 10.782,5.256 0.144,0.036 0.885,0.256 1.071,0.315 0.631,0.203 0.846,0.394 1.094,1.084 0.194,0.706 0.46,1.799 0.669,2.722 0.145,0.638 0.26,1.209 0.308,1.458 -0.208,-0.747 -2.14,-1.294 -3.074,-1.55 z m 0.107,-7.281 c -3.069,-0.81 -5.858,-2.166 -8.237,-3.984 l 0.001,-0.003 c -0.902,-0.69 -1.747,-1.444 -2.524,-2.264 0.247,-0.782 0.515,-1.443 1.106,-2.66 0,0 2.184,1.652 3.152,2.244 1.613,0.983 3.368,1.775 5.202,2.362 0.413,0.129 0.762,0.582 0.966,1.148 0.064,0.177 0.273,0.835 0.433,1.349 0.257,0.835 0.621,2.006 0.729,2.377 -0.131,-0.355 -0.638,-0.52 -0.828,-0.569" style="fill:url(#linearGradient6128);stroke:none" id="path6144" inkscape:connector-curvature="0"/>
        </g>
      </g>
    </g>
    <g transform="matrix(3.3773895,0,0,-3.3773895,-394.87564,2719.1683)" id="g6146">
      <g id="g6148">
        <g id="g6154">
          <path d="m 91.991,795.826 c -0.324,0.467 -0.753,0.834 -1.21,1.139 -0.386,0.254 -1.084,0.582 -1.228,0.646 0.398,-0.231 0.785,-0.478 1.145,-0.76 0.421,-0.335 0.826,-0.702 1.101,-1.15 0.179,-0.283 0.286,-0.605 0.286,-0.923 0,-0.817 -0.438,-1.163 -1.163,-1.554 -0.946,-0.511 -1.965,-0.913 -2.97,-1.333 -1.007,-0.416 -2.014,-0.838 -3.017,-1.271 -2.004,-0.868 -3.995,-1.791 -5.876,-2.913 -0.94,-0.56 -1.862,-1.156 -2.719,-1.837 -0.858,-0.679 -1.656,-1.431 -2.337,-2.285 1.458,1.631 3.283,2.856 5.168,3.929 1.901,1.058 3.882,1.967 5.887,2.818 l 3.022,1.253 c 1.005,0.43 2.019,0.845 2.99,1.369 1.134,0.612 1.295,1.086 1.295,1.77 0,0.197 -0.053,0.416 -0.068,0.467 -0.066,0.23 -0.177,0.442 -0.306,0.635" style="fill:url(#linearGradient6156);stroke:none" id="path6170" inkscape:connector-curvature="0"/>
        </g>
      </g>
    </g>
    <g transform="matrix(3.3773895,0,0,-3.3773895,-394.87564,2719.1683)" id="g6172">
      <g id="g6174">
        <g id="g6180">
          <path d="m 79.599,818.875 c -0.621,0 -1.205,-0.373 -1.7,-0.716 -0.892,-0.621 -2.613,-2.244 -3.49,-3.135 -0.763,-0.778 -1.59,-1.936 -1.87,-2.504 -0.19,-0.386 -0.328,-0.769 -0.411,-1.191 -0.104,-0.521 -0.276,-1.631 -0.341,-2.038 l 0.005,0.02 -0.004,-0.02 c -0.335,-1.824 -0.556,-3.565 -0.656,-5.173 l -0.012,-0.173 -0.016,-0.258 -0.001,-0.004 C 71.07,803.334 71,801.993 71,800.216 c 0,-1.671 0.37,-2.408 0.484,-2.667 0.289,-0.654 0.682,-1.258 1.119,-1.822 -0.559,0.837 -0.88,1.811 -0.88,2.815 0,1.313 0.471,2.761 1.957,4.247 0.548,0.548 1.363,1.136 2.28,1.63 0.825,0.445 1.423,0.68 2.432,1.219 0.447,0.239 0.877,0.544 1.093,0.761 0.389,0.389 0.423,1.344 0.469,1.834 0.028,0.301 0.825,9.354 0.825,9.536 0,0.625 -0.417,1.106 -1.18,1.106" style="fill:url(#linearGradient6182);stroke:none" id="path6202" inkscape:connector-curvature="0"/>
        </g>
      </g>
    </g>
    <g transform="matrix(3.3773895,0,0,-3.3773895,-394.87564,2719.1683)" id="g6204">
      <g id="g6206">
        <g id="g6212">
          <path d="m 73.68,802.789 c -1.486,-1.486 -1.957,-2.934 -1.957,-4.247 0,-1.004 0.321,-1.978 0.88,-2.815 0.584,-0.876 1.39,-1.585 2.263,-2.117 -0.882,0.751 -2.759,2.324 -2.759,4.793 0,1.731 0.898,3.29 2.036,4.428 0.919,0.919 2.42,1.752 3.441,2.393 -0.577,-0.284 -1.045,-0.493 -1.624,-0.805 -0.917,-0.494 -1.732,-1.082 -2.28,-1.63" style="fill:url(#linearGradient6214);stroke:none" id="path6224" inkscape:connector-curvature="0"/>
        </g>
      </g>
    </g>
    <g transform="matrix(3.3773895,0,0,-3.3773895,-394.87564,2719.1683)" id="g6226">
      <g id="g6228">
        <g id="g6234">
          <path d="m 71.103,803.683 c 0.432,2.31 3.992,4.692 5.034,5.37 0.162,0.106 0.262,0.177 0.281,0.192 0.216,0.181 0.428,0.38 0.526,1.194 0.01,0.079 0.377,3.098 0.467,3.823 0.1,0.8 -0.724,0.219 -0.89,0.099 -1.417,-1.012 -4.465,-3.759 -4.734,-5.07 -0.258,-1.408 -0.536,-3.255 -0.656,-5.173 -0.009,-0.145 -0.022,-0.29 -0.028,-0.435" style="fill:url(#linearGradient6236);stroke:none" id="path6254" inkscape:connector-curvature="0"/>
        </g>
      </g>
    </g>
    <g transform="matrix(3.3773895,0,0,-3.3773895,-394.87564,2719.1683)" id="g6256">
      <g id="g6258">
        <g id="g6264">
          <path d="m 96.033,801.357 -2.454,0.171 c -0.288,0.021 -0.333,-0.103 -0.101,-0.276 l 1.991,-1.46 c 0.232,-0.172 0.504,-0.089 0.601,0.183 l 0.308,0.852 c 0.099,0.272 -0.056,0.511 -0.345,0.53 z m -0.172,4.309 -1.64,-0.399 c -0.292,-0.071 -0.298,-0.205 -0.013,-0.299 l 1.672,-0.551 c 0.285,-0.092 0.517,0.076 0.515,0.375 l -10e-4,0.459 c -0.002,0.299 -0.241,0.486 -0.533,0.415 z m -2.498,-7.702 -1.172,0.541 c -0.262,0.119 -0.347,0.022 -0.191,-0.223 l 0.703,-1.086 c 0.156,-0.243 0.44,-0.262 0.629,-0.042 l 0.164,0.191 c 0.19,0.219 0.128,0.498 -0.133,0.619 z m 2.928,11.296 -0.208,0.901 c -0.053,0.224 -0.259,0.315 -0.46,0.205 l -2.032,-1.125 c -0.2,-0.111 -0.178,-0.212 0.052,-0.226 l 2.327,-0.138 c 0.228,-0.014 0.375,0.159 0.321,0.383 z m -8.986,9.193 -0.773,0.34 c -0.211,0.094 -0.38,-0.019 -0.37,-0.251 l 0.084,-2.438 c 0.008,-0.231 0.107,-0.254 0.217,-0.051 l 1.023,1.862 c 0.113,0.203 0.03,0.445 -0.181,0.538 z m 4.91,-6.095 2.232,0.686 c 0.317,0.097 0.344,0.317 0.062,0.489 l -0.665,0.404 c -0.282,0.17 -0.683,0.103 -0.893,-0.154 l -0.929,-1.138 c -0.209,-0.255 -0.123,-0.385 0.193,-0.287 z m -0.784,4.563 -1.246,0.308 c -0.282,0.073 -0.573,-0.1 -0.65,-0.38 l -0.633,-2.29 c -0.077,-0.278 0.04,-0.353 0.258,-0.164 l 2.382,2.053 c 0.22,0.19 0.169,0.402 -0.111,0.473 z m -9.44,2.744 c 0.03,-0.126 0.68,-2.941 0.71,-3.063 0.042,-0.164 0.085,-0.221 0.131,-0.221 0.05,0 0.103,0.068 0.145,0.228 0.014,0.055 0.718,2.669 0.748,2.777 l 0.021,0.154 c 0,0.149 -0.063,0.266 -0.127,0.329 -0.066,0.068 -0.149,0.114 -0.254,0.127 0,0 -0.872,0.106 -1.005,0.122 -0.095,0.011 -0.207,-0.003 -0.292,-0.087 l -0.092,-0.249 0.015,-0.117" style="fill:url(#radialGradient6266);stroke:none" id="path6278" inkscape:connector-curvature="0"/>
        </g>
      </g>
    </g>
    <g id="g6280" transform="matrix(3.3773895,0,0,-3.3773895,-137.75498,231.27162)">
      <path d="m 0,0 0,-5.239 1.631,0 0,1.892 1.173,0 0.417,1.145 -1.59,0 0,1.061 1.975,0 L 4.022,0 0,0" style="fill:#ffffff;fill-opacity:1;fill-rule:evenodd;stroke:none" id="path6282" inkscape:connector-curvature="0"/>
    </g>
    <path d="m -122.4858,248.96576 5.5082,0 0,-17.69414 -5.5082,0 0,17.69414 z" style="fill:#ffffff;fill-opacity:1;fill-rule:nonzero;stroke:none" id="path6284" inkscape:connector-curvature="0"/>
    <g id="g6286" transform="matrix(3.3773895,0,0,-3.3773895,-113.19123,231.27162)">
      <path d="m 0,0 0,-5.239 1.631,0 0,1.892 1.174,0 0.417,1.145 -1.591,0 0,1.061 1.976,0 L 4.023,0 0,0" style="fill:#ffffff;fill-opacity:1;fill-rule:evenodd;stroke:none" id="path6288" inkscape:connector-curvature="0"/>
    </g>
    <g id="g6290" transform="matrix(3.3773895,0,0,-3.3773895,-91.025419,243.18705)">
      <path d="M 0,0 -0.652,2.182 -1.282,0 0,0 Z m 2.129,-1.711 -1.647,0 -0.212,0.704 -1.843,0 -0.204,-0.704 -1.606,0 1.909,5.239 1.695,0 1.908,-5.239" style="fill:#ffffff;fill-opacity:1;fill-rule:evenodd;stroke:none" id="path6292" inkscape:connector-curvature="0"/>
    </g>
    <g id="g6294" transform="matrix(3.3773895,0,0,-3.3773895,-62.719518,252.47487)">
      <path d="m 0,0 0,-1.411 -0.573,0 0,3.468 0.573,0 0,-1.405 3.964,0 L 3.964,0 0,0" style="fill:#000000;fill-opacity:1;fill-rule:nonzero;stroke:none" id="path6296" inkscape:connector-curvature="0"/>
    </g>
    <g id="g6298" transform="matrix(3.3773895,0,0,-3.3773895,-64.65814,243.29175)">
      <path d="M 0,0 0,1.073 3.772,2.495 0,3.891 l 0,1.078 4.538,0 0,-0.651 -3.929,0 0,-0.011 3.929,-1.505 0,-0.635 -3.929,-1.5 0,-0.016 3.929,0 L 4.538,0 0,0" style="fill:#000000;fill-opacity:1;fill-rule:nonzero;stroke:none" id="path6300" inkscape:connector-curvature="0"/>
    </g>
  </g>
</svg>